<svg width="235" height="327" viewBox="0 0 235 327" fill="none" xmlns="http://www.w3.org/2000/svg">
<path d="M129.25 0.435516C141.298 5.44832 147.195 8.99431 153.729 20.0115C156.667 30.625 156.667 30.625 157.156 45.2481C158.239 55.7578 159.591 59.8083 167.239 67.5659C172.827 71.9252 178.438 76.2585 184.068 80.5674C207.389 100.366 212.325 130.415 215.417 158.93C215.719 164.82 215.976 170.712 216.197 176.605C216.381 181.324 216.381 181.324 216.569 186.138C216.776 192.396 216.911 198.658 216.965 204.92C217.596 226.767 223.128 238.544 235 257.046C235 262.028 235 267.009 235 272.141C210.443 272.141 185.885 272.141 160.583 272.141C159.291 283.349 157.998 294.557 156.667 306.104C147.07 317.155 140.22 323.338 125.471 326.756C109.916 327.878 102.2 325.172 88.3698 317.661C78.3333 306.104 78.3333 306.104 74.4167 272.141C49.8592 272.141 25.3017 272.141 0 272.141C3.91667 253.273 3.91667 253.273 9.89876 244.915C18.2883 229.627 17.5598 215.367 17.8698 198.318C21.0747 112.013 21.0747 112.013 47 83.4567C51.7488 79.8377 56.565 76.2994 61.4427 72.8432C77.5565 60.6971 78.0479 47.5349 80.46 28.7382C82.25 19.304 82.25 19.304 90.0833 9.39803C103.885 0.255673 112.437 -0.835031 129.25 0.435516ZM102.813 23.5494C95.9059 33.5311 97.1061 41.553 97.9167 53.2672C110.842 53.2672 123.767 53.2672 137.083 53.2672C138.494 37.542 138.494 37.542 132.188 23.5494C121.816 17.1254 113.184 17.1254 102.813 23.5494ZM51.9417 108.398C38.3093 133.285 37.9043 159.739 37.2083 187.233C37.0362 194.034 36.8326 200.835 36.5964 207.635C36.5231 210.604 36.4499 213.574 36.3745 216.634C34.8678 230.332 30.8841 243.683 27.4167 257.046C86.8717 257.046 146.327 257.046 207.583 257.046C204.998 248.329 202.413 239.612 199.75 230.631C198.688 220.55 198.688 220.55 198.541 211.084C198.443 207.577 198.344 204.069 198.243 200.456C198.106 193.243 197.983 186.029 197.876 178.816C196.774 141.36 187.906 111.011 160.583 83.4567C119.912 54.9574 78.8478 74.5909 51.9417 108.398ZM94 272.141C95.2909 291.067 95.2909 291.067 105.75 306.104C117.334 307.992 117.334 307.992 129.25 306.104C137.121 300.081 137.121 300.081 141 291.01C141 284.783 141 278.556 141 272.141C125.49 272.141 109.98 272.141 94 272.141Z" fill="#1BACE1"/>
</svg>
