<svg width="360" height="235" viewBox="0 0 360 235" fill="none" xmlns="http://www.w3.org/2000/svg">
<path d="M54.2416 0.835774C57.2412 0.817186 60.2408 0.798598 63.3313 0.779446C73.2573 0.724754 83.1831 0.699248 93.1092 0.678559C100.009 0.657023 106.909 0.635467 113.808 0.613891C128.278 0.574558 142.748 0.552673 157.218 0.539626C175.75 0.519087 194.281 0.429115 212.813 0.322584C227.067 0.252829 241.321 0.233359 255.575 0.227624C262.407 0.216297 269.238 0.186251 276.07 0.137077C285.632 0.0731591 295.192 0.0802539 304.754 0.104543C307.57 0.0700439 310.386 0.0355446 313.287 0C330.326 0.135444 341.142 2.55796 354.691 12.6707C359.506 21.9582 359.118 28.2524 359.199 38.6422C359.236 42.491 359.273 46.3398 359.312 50.3053C359.328 54.4781 359.345 58.6509 359.362 62.9502C359.384 67.2253 359.406 71.5003 359.429 75.905C359.466 84.9627 359.491 94.0205 359.506 103.078C359.544 116.949 359.664 130.817 359.787 144.687C359.812 153.477 359.832 162.266 359.847 171.055C359.895 175.213 359.943 179.371 359.992 183.654C359.981 187.527 359.969 191.399 359.957 195.389C359.978 200.493 359.978 200.493 360 205.7C358.276 216.749 354.896 221.797 346.927 229.817C332.991 234.297 320.265 234.143 305.758 234.164C302.759 234.183 299.759 234.201 296.669 234.221C286.743 234.275 276.817 234.301 266.891 234.321C259.991 234.343 253.091 234.365 246.192 234.386C231.722 234.425 217.252 234.447 202.782 234.46C184.25 234.481 165.719 234.571 147.186 234.677C132.933 234.747 118.679 234.767 104.425 234.772C97.5934 234.784 90.7616 234.814 83.93 234.863C74.3678 234.927 64.8084 234.92 55.2462 234.895C52.4303 234.93 49.6144 234.964 46.7131 235C29.6743 234.865 18.8584 232.442 5.30865 222.329C0.493591 213.042 0.882173 206.748 0.801095 196.358C0.763798 192.509 0.726502 188.66 0.688075 184.695C0.671576 180.522 0.655078 176.349 0.63808 172.05C0.615952 167.775 0.593825 163.5 0.571026 159.095C0.534306 150.037 0.508962 140.98 0.494021 131.922C0.456336 118.051 0.33593 104.183 0.213483 90.3128C0.188135 81.5235 0.167752 72.7341 0.152826 63.9447C0.104896 59.787 0.0569652 55.6293 0.00758209 51.3457C0.0192324 47.4733 0.0308828 43.6009 0.0428862 39.6111C0.0287338 36.2084 0.0145813 32.8058 0 29.3C1.72439 18.2505 5.10395 13.2029 13.0727 5.18294C27.0086 0.70292 39.7345 0.857215 54.2416 0.835774ZM20.8368 27.6464C55.2481 54.7562 89.8016 81.6535 124.802 108.052C142.023 121.046 159.079 134.237 176.118 147.451C191.111 141.169 203.241 131.714 215.909 121.946C218.254 120.154 220.599 118.363 223.015 116.517C244.181 100.299 265.155 83.8487 286.047 67.3037C303.399 53.6093 321.131 40.4962 339.163 27.6464C329.625 18.4474 324.322 19.2517 311.303 19.1437C307.117 19.1665 307.117 19.1665 302.845 19.1897C298.432 19.17 298.432 19.17 293.93 19.1499C284.178 19.1169 274.428 19.1388 264.677 19.1641C257.918 19.159 251.159 19.1518 244.399 19.1424C230.223 19.1313 216.047 19.1474 201.871 19.1824C183.672 19.225 165.475 19.2005 147.276 19.1556C133.316 19.1286 119.356 19.1371 105.395 19.1566C98.6841 19.1616 91.9727 19.1554 85.2614 19.138C75.8921 19.119 66.5242 19.1479 57.155 19.1897C54.3637 19.1745 51.5724 19.1594 48.6966 19.1437C33.0265 18.8495 33.0265 18.8495 20.8368 27.6464ZM20.8368 50.1098C20.8368 94.5873 20.8368 139.065 20.8368 184.89C41.0742 170.252 61.1634 155.545 81.0082 140.431C83.4603 138.569 85.9123 136.706 88.4387 134.786C94.3755 130.275 100.309 125.76 106.241 121.244C100.902 105.795 89.6232 99.4011 76.6409 89.8887C74.294 88.132 71.947 86.3753 69.5289 84.5654C53.5561 72.6753 37.2823 61.4386 20.8368 50.1098ZM311.746 69.2973C292.911 84.8481 273.84 99.7056 253.759 113.756C259.098 129.205 270.377 135.599 283.359 145.111C285.706 146.868 288.053 148.625 290.471 150.435C306.444 162.325 322.718 173.561 339.163 184.89C339.163 140.413 339.163 95.9351 339.163 50.1098C329.814 50.1098 318.901 63.3388 311.746 69.2973ZM99.4479 146.983C73.9652 168.053 47.6253 187.861 20.8368 207.354C30.3751 216.553 35.6778 215.748 48.6966 215.856C51.4878 215.841 54.2791 215.826 57.155 215.81C61.568 215.83 61.568 215.83 66.0702 215.85C75.8216 215.883 85.5718 215.861 95.3232 215.836C102.082 215.841 108.841 215.848 115.601 215.858C129.777 215.869 143.953 215.853 158.129 215.818C176.328 215.775 194.525 215.8 212.724 215.844C226.684 215.871 240.644 215.863 254.605 215.843C261.316 215.838 268.027 215.845 274.739 215.862C284.108 215.881 293.476 215.852 302.845 215.81C305.636 215.825 308.428 215.841 311.303 215.856C326.974 216.15 326.974 216.15 339.163 207.354C305.622 181.022 272.074 154.702 238.23 128.732C233.456 132.16 228.685 135.593 223.915 139.027C221.073 141.059 218.231 143.091 215.302 145.184C206.576 151.467 206.576 151.467 196.741 160.321C187.764 166.171 187.764 166.171 178.893 165.732C165.179 161.431 156.916 154.409 146.032 145.345C122.18 125.632 122.114 128.06 99.4479 146.983Z" fill="#1BACE1"/>
</svg>
