<svg width="128" height="99" viewBox="0 0 128 99" fill="none" xmlns="http://www.w3.org/2000/svg">
<path d="M105.394 1.1748C105.477 1.17762 105.563 1.18175 105.643 1.20129C107.428 1.63153 108.23 8.30642 109.674 10.0183C111.209 11.8368 117.819 12.5569 118.793 14.1941C118.886 14.3501 118.886 14.4539 118.847 14.6265C118.48 15.1572 116.666 15.4335 115.902 15.6422C114.847 15.9338 113.811 16.2961 112.805 16.7268C108.995 18.3393 108.452 20.3287 107.436 24.1492C107.351 24.4674 107.033 26.5218 106.98 26.6143L106.81 26.6314C106.232 26.6159 105.608 26.6328 105.024 26.6388C104.903 24.8194 104.347 22.7442 103.61 21.077C103.406 20.6163 102.576 18.7043 102.203 18.4228C99.8821 16.7036 96.7562 16.2332 94.1445 15.0873C91.6234 13.9812 95.3485 12.9399 96.1405 12.6012C97.8522 11.869 101.368 11.1123 102.372 9.50722C103.4 7.86551 104.068 5.32929 104.697 3.47011C104.962 2.68447 104.998 1.95222 105.394 1.1748Z" fill="#FFF0B4"/>
<path d="M13.0921 63.8276C13.6438 63.833 14.1954 63.8481 14.7466 63.8728C15.5551 65.7053 15.7821 67.8444 16.8297 69.6315C18.4148 72.3359 22.4055 71.7617 24.5713 73.483C24.9275 73.766 24.866 74.3076 24.8531 74.7477C22.7696 75.6176 19.8759 76.1542 18.0898 77.1908C16.2887 78.2358 14.8938 82.9885 14.4987 85.0624C14.4648 85.1084 14.4187 85.1352 14.3697 85.1729C12.7244 85.0701 12.6247 82.337 12.1602 81.1119C11.7741 80.0932 11.6229 79.5937 10.96 78.6528C9.23118 76.1995 5.62002 76.3764 3.45798 74.6532C3.20811 74.4545 3.01803 74.1607 3.00098 73.8215C3.11318 73.5367 3.10735 73.605 3.45301 73.4421C4.13689 73.1196 4.93536 72.9433 5.63493 72.6872C6.96417 72.1998 8.93277 71.2258 9.9896 70.3341C11.499 69.0605 12.6966 65.9665 12.7794 63.9942C12.9056 63.8269 12.841 63.8792 13.0921 63.8276Z" fill="#FFF0B4"/>
<path d="M122.56 26.8414C123.447 26.7694 124.173 26.7597 125.005 27.143C127.131 28.1225 127.626 30.8645 126.696 32.8466C126.213 33.8779 125.356 34.2411 124.342 34.5881C119.485 36.0032 117.805 27.7244 122.56 26.8414Z" fill="#EA9800"/>
<path d="M39.772 6.9879C39.9951 6.93341 40.2651 6.99032 40.4892 7.00763C42.1282 7.13365 43.5202 8.18959 43.8829 9.83443C44.4855 12.5675 42.9341 13.932 40.484 14.5153C39.7133 14.7133 38.4801 14.2114 37.8198 13.7346C36.2625 12.6101 35.6127 9.86956 36.7963 8.27531C37.5925 7.20295 38.5065 7.14093 39.772 6.9879Z" fill="#EA9800"/>
<path d="M65.1203 6.6135C66.1122 6.61797 66.9898 6.52312 67.7429 7.2818C68.1185 7.6596 68.4499 8.27092 68.6614 8.75463C69.6878 11.1034 70.5245 13.5519 71.4507 15.9374L77.4668 31.6518C78.315 33.8798 79.2086 36.4477 80.1175 38.6285C81.5968 38.4533 83.2811 38.6625 84.7961 38.4984C86.483 38.3157 88.3078 38.6723 90.0254 38.588C91.7665 38.6644 93.645 38.891 95.3925 39.0494L102.414 39.6604C104.455 39.8482 106.76 40.0587 108.817 40.0934C109.468 40.1044 110.215 39.9211 110.874 39.9112C112.048 39.9949 113.65 39.9109 114.695 40.4546C114.902 40.5625 115.093 41.2219 115.1 41.4642C115.212 41.5556 115.674 41.926 115.742 42.0205C117.196 44.0654 112.944 46.9546 111.735 47.9438L107.912 51.12C102.144 55.8315 96.4164 60.591 90.728 65.3982C90.7088 67.1521 91.389 70.1037 91.8349 71.8876C93.5818 78.8107 96.1718 85.5799 97.1707 92.671C97.3355 93.8418 97.7373 96.4695 96.8105 97.2583C94.5961 99.1413 90.4284 96.0448 88.518 94.9564C84.5834 92.7145 81.0609 90.2483 77.2151 87.9049C74.1818 86.0564 67.7825 81.913 64.5346 81.1612C64.4771 81.5553 64.4598 81.8753 64.1418 82.1487C62.5768 83.4932 60.629 84.5643 58.8964 85.6808C53.8386 88.8955 48.6928 91.9697 43.465 94.8995C42.4018 95.4961 41.3481 96.0882 40.2693 96.6573C39.4343 97.0974 38.1952 97.6058 37.4306 98.1078H36.1026C35.438 97.6562 35.086 97.6256 34.4859 96.9524C34.0125 96.3679 33.6727 95.8538 33.6874 95.0739C33.7197 93.3621 34.3832 91.2997 34.8028 89.6013C36.5512 82.5402 38.8109 75.5852 40.0136 68.3983C40.1564 67.5449 40.4853 66.0516 40.2012 65.2628C39.613 64.4618 38.7877 63.8857 38.0232 63.2545L35.275 60.9721L22.1574 49.95L18.3257 46.7644C17.5353 46.1136 16.524 45.35 15.8506 44.5967C15.1738 43.8395 15.2368 42.9248 15.3392 41.9723C16.0822 39.3049 19.502 39.424 21.7172 39.3298C23.3254 39.1344 25.2208 39.7112 26.7649 39.5812C28.3822 39.4449 29.8956 39.3473 31.5295 39.3125C32.9539 39.2822 34.373 38.9974 35.8425 39.0423C36.7956 39.0715 38.0342 38.731 39.0443 38.8146C42.4746 38.4334 45.8684 38.6265 49.3078 38.5502C49.6753 38.5421 50.3275 38.2781 50.475 37.9482C51.1524 36.4326 51.6966 34.8485 52.3152 33.3009L58.8733 16.6467C59.373 15.3659 62.2251 7.72533 62.6703 7.21013C63.1984 6.59919 64.3826 6.64097 65.1203 6.6135Z" fill="#F9C433"/>
<path d="M15.3392 41.9721C16.0822 39.3047 19.502 39.4238 21.7172 39.3295C23.3254 39.1342 25.2208 39.711 26.7649 39.5809C28.3822 39.4447 29.8956 39.347 31.5295 39.3123C32.9539 39.282 34.373 38.9972 35.8425 39.0421C36.7956 39.0713 38.0342 38.7307 39.0443 38.8144C42.4746 38.4332 45.8684 38.6263 49.3078 38.55C49.6753 38.5419 50.3275 38.2779 50.475 37.948C51.1524 36.4324 51.6966 34.8483 52.3152 33.3006L58.8733 16.6465C59.373 15.3657 62.2251 7.72511 62.6703 7.20991C63.1984 6.59897 64.3826 6.64075 65.1203 6.61328C65.1784 8.45842 65.1465 10.4589 65.1458 12.3131L65.142 23.6197C65.1484 24.7199 65.3969 25.7998 65.3969 26.8723C65.3943 33.5035 65.4141 40.1216 65.3975 46.7541C65.3145 49.3879 66.1659 52.2422 65.3145 54.8078C65.1593 55.2747 65.0545 55.9133 64.8118 56.3164C63.5108 58.4721 61.9307 60.489 60.4943 62.5564C56.986 67.6233 53.4016 72.6379 49.7427 77.5976L41.7694 88.3147C40.6966 89.7761 39.5977 91.2177 38.4734 92.6401C38.0293 93.2035 37.6762 93.6947 37.1996 94.2491C36.5204 95.0392 35.0794 96.1985 34.4859 96.9522C34.0125 96.3677 33.6727 95.8536 33.6874 95.0737C33.7197 93.3619 34.3832 91.2995 34.8028 89.6011C36.5512 82.54 38.8109 75.585 40.0136 68.3981C40.1564 67.5447 40.4853 66.0514 40.2012 65.2626C39.613 64.4616 38.7877 63.8855 38.0232 63.2542L35.275 60.9719L22.1574 49.9498L18.3257 46.7642C17.5353 46.1134 16.524 45.3498 15.8506 44.5965C15.1738 43.8393 15.2368 42.9245 15.3392 41.9721Z" fill="#FFE18F"/>
<path d="M15.3392 41.9722C15.5218 42.1435 16.259 42.2109 16.5777 42.3023C18.8153 42.9441 21.0962 43.4849 23.3358 44.1085L51.6621 51.7941L60.0649 54.059C60.9747 54.3093 63.809 55.1579 64.594 55.2521C63.3904 56.0819 61.0436 57.1404 59.67 57.7752C58.1003 58.5006 56.1588 58.9414 54.5779 59.7667C50.2442 61.6266 45.9882 64.074 41.3683 65.1375C41.0228 65.2167 40.4454 65.0123 40.2012 65.2627C39.613 64.4617 38.7877 63.8856 38.0232 63.2543L35.275 60.972L22.1574 49.9499L18.3257 46.7643C17.5353 46.1135 16.524 45.3499 15.8506 44.5966C15.1738 43.8394 15.2368 42.9246 15.3392 41.9722Z" fill="#F9C433"/>
<path d="M16.1164 0H17.1643C17.4138 0.718972 17.5363 1.52007 17.7122 2.26107C18.0742 3.78594 18.9219 6.9311 19.7357 8.2111C21.196 10.5078 28.3854 11.4093 28.8946 12.4669C28.9763 12.6367 28.9972 12.8209 28.9193 12.9955C28.4867 13.9659 25.0049 14.8925 24.0434 15.2263C23.1438 15.5387 22.0061 15.8606 21.2036 16.3814C18.7113 17.9984 18.3997 22.7288 17.1601 25.2345C17.0229 25.5119 16.8669 25.7873 16.559 25.8914C16.2364 25.8775 16.0145 25.6901 15.8847 25.4037C15.5462 24.6565 15.3201 23.6583 15.1432 22.8598C14.8118 21.3641 13.8747 18.7676 13.0534 17.5104C11.6916 15.4257 6.47317 14.978 4.37232 13.6885C3.9418 13.4243 3.65688 13.0597 3.56783 12.5549C3.53149 12.4662 3.56453 12.2638 3.66218 12.2333C6.18165 11.4472 8.7573 10.8492 11.0533 9.47922C12.7049 8.49373 13.5446 7.18141 14.1226 5.39117C14.3533 4.67622 14.6721 3.94676 14.8378 3.20171C15.1972 1.81051 15.2301 1.17422 16.1164 0Z" fill="#F2B77D"/>
<path d="M116.329 63.8371C116.882 63.8098 118.008 63.6628 118.204 64.2894C118.857 66.371 119.109 68.8103 120.528 70.5553C120.887 70.9966 121.966 71.4316 122.504 71.6762C124.364 72.4133 126.181 72.976 128 73.8223V74.6156C126.442 75.3719 124.358 75.7308 122.732 76.4309C120.993 77.1795 120.393 77.4139 119.651 79.263C119.26 80.2351 118.851 81.1191 118.605 82.1698C118.465 82.7676 118.295 83.6855 118.058 84.2233C117.839 84.443 116.66 84.383 116.298 84.3849C116.159 82.7434 115.058 79.7701 114.006 78.5176C113.481 77.8929 112.839 77.3755 112.117 76.9942C109.255 75.4511 102.365 74.3403 109.931 72.2894C112.574 71.5728 114.549 69.3851 115.277 66.8098C115.555 65.8313 115.884 64.7863 116.329 63.8371Z" fill="#F2B77D"/>
<path d="M0 35.4046C0.542396 34.744 -0.0454828 33.3717 1.52646 32.5369C4.06535 31.1886 7.00251 32.0606 7.51559 35.0852C7.79669 37.0394 6.94317 39.0254 4.79723 39.3537C2.71718 39.672 0.461259 38.8099 0.227365 36.4973C0.190958 36.1373 0.235026 35.908 0 35.6123V35.4046Z" fill="#EA9800"/>
</svg>
