<svg width="99" height="91" viewBox="0 0 99 91" fill="none" xmlns="http://www.w3.org/2000/svg">
<path d="M47.856 0H49.3089H51.5588L51.5829 0.0669586C51.7792 0.605081 52.0607 1.09803 52.2764 1.62288C55.5994 9.70814 58.1646 18.0737 60.9826 26.3414C61.4972 27.8511 62.5451 29.8674 62.345 31.4355C63.5193 31.3867 64.6764 31.431 65.8465 31.3963C66.567 31.352 67.2754 31.1729 67.999 31.1835C68.639 31.1929 69.3231 31.3558 69.9593 31.3689C73.4863 31.4421 76.9744 32.0834 80.4988 32.2266C81.1446 32.2857 81.7871 32.3653 82.4342 32.4147C83.0857 32.4645 83.7557 32.4126 84.4034 32.4384C85.8922 32.4936 87.3479 32.2285 88.8278 32.1733C89.98 32.1302 91.0556 32.3007 92.1811 32.3893C93.5684 32.4985 94.7564 32.6469 96.0639 33.1532C96.2459 33.2239 96.5832 33.3284 96.776 33.3713C97.1567 33.4252 97.4154 33.5014 97.7878 33.6063L98.1078 34.041V36.1557C97.92 36.4752 97.5585 37.2121 97.3445 37.4183C96.4286 38.2991 95.3613 39.142 94.3917 39.9734C92.2156 41.8609 90.0228 43.7292 87.8141 45.5781C83.6637 49.0735 79.6008 52.6708 75.6279 56.3668C75.0863 56.8643 73.7552 57.6174 73.6217 58.3474C73.3867 59.6332 77.0919 74.0362 77.6169 76.0591L79.4411 83.0844C79.8518 84.7291 80.663 87.3689 80.5301 88.9836C80.1769 89.2915 79.938 89.4959 79.6232 89.8497C79.3862 90.1391 78.9519 90.7471 78.7187 90.9541H77.2241C77.0683 90.8366 76.6467 90.7005 76.4366 90.5836C73.7769 89.1037 71.1965 87.4232 68.6148 85.8098C63.8305 82.7759 59.0311 79.7662 54.2168 76.7808C53.34 76.2347 52.4686 75.6925 51.5997 75.1342C51.0432 74.7772 49.9525 73.9711 49.3849 73.7348C48.6983 74.3103 47.1204 75.2396 46.289 75.7621L40.6927 79.2872L28.7189 86.8394C26.5318 88.2159 24.3708 89.6134 22.1543 90.9541H20.516C20.1841 90.719 19.5989 90.6877 19.2823 90.4968C19.012 90.3333 18.8434 89.5674 18.765 89.2519C18.5535 88.7601 18.3529 88.1546 18.1703 87.641C18.3405 87.0764 18.4785 86.4945 18.6186 85.921C19.9295 80.5608 21.3884 75.2396 22.6885 69.8769L25.3379 58.468C25.2769 58.0069 25.3101 57.8571 24.9338 57.5328C24.1778 56.8813 23.3937 56.2614 22.6206 55.6298C21.3395 54.5824 20.0717 53.5189 18.8176 52.4396C14.7435 48.9567 10.6943 45.3375 6.61078 41.8948L2.85839 38.7821C2.19388 38.2318 1.55324 37.698 0.914695 37.119C0.317368 36.5773 0.304312 35.4891 0 35.1558V34.5673C0.255466 34.1772 0.843848 33.4104 1.22562 33.1306C2.05701 32.288 2.52411 32.348 3.665 32.2207C5.79721 31.88 8.20727 32.614 10.2609 32.4306C12.7455 32.2087 15.0966 32.1122 17.5962 32.1705C18.5058 32.1917 19.5198 31.9552 20.4388 31.9314C21.6031 31.9012 22.7726 31.9502 23.937 31.9125C24.705 31.8803 25.4615 31.7587 26.2208 31.704L32.3527 31.2892C33.2106 31.2353 34.643 31.5936 35.4076 31.3827C35.6127 31.2208 36.0765 29.887 36.1921 29.5777L45.2549 4.7951C45.642 3.72293 45.708 2.57205 46.1708 1.50898C46.6321 0.44926 47.0343 0.49053 47.856 0Z" fill="#BCBCBC"/>
<path d="M62.3451 31.436C63.5194 31.3872 64.6765 31.4315 65.8466 31.3969C66.5671 31.3525 67.2754 31.1734 67.9991 31.1841C68.6391 31.1934 69.3232 31.3563 69.9594 31.3695C73.4864 31.4427 76.9744 32.0839 80.4989 32.2271C81.1447 32.2862 81.7872 32.3658 82.4342 32.4153C83.0857 32.4651 83.7558 32.4131 84.4034 32.4389C85.8923 32.4941 87.3479 32.2291 88.8279 32.1738C89.9801 32.1308 91.0557 32.3012 92.1811 32.3898C93.5685 32.4991 94.7565 32.6474 96.0639 33.1537C96.246 33.2244 96.5832 33.3289 96.7761 33.3719C97.1568 33.4257 97.4155 33.502 97.7879 33.6068L98.1079 34.0416V36.1562C97.9201 36.4757 97.5586 37.2126 97.3446 37.4188C96.4287 38.2996 95.3613 39.1425 94.3918 39.974C92.2156 41.8614 90.0229 43.7298 87.8142 45.5786C83.6638 49.074 79.6009 52.6714 75.628 56.3673C75.0864 56.8648 73.7553 57.6179 73.6218 58.3479C73.3867 59.6337 77.092 74.0368 77.617 76.0596L79.4412 83.0849C79.8519 84.7296 80.6631 87.3695 80.5302 88.9842C80.177 89.292 79.9381 89.4964 79.6232 89.8503C79.3863 90.1396 78.9519 90.7477 78.7188 90.9546H77.2242C77.0683 90.8371 76.6468 90.701 76.4366 90.5842C73.777 89.1042 71.1966 87.4238 68.6148 85.8103C63.8306 82.7764 59.0312 79.7668 54.2168 76.7814C53.34 76.2353 52.4687 75.693 51.5998 75.1347C51.0433 74.7777 49.9526 73.9716 49.385 73.7353C49.2699 73.1151 49.3051 71.853 49.3062 71.1651L49.3111 67.0971C49.3107 61.4607 49.3858 55.6648 49.3115 50.0487C49.3086 49.6324 49.3087 49.2161 49.3118 48.7999C49.3136 48.3772 49.3179 47.9547 49.3246 47.5321L50.2387 47.517C50.5614 47.2145 51.6589 45.7183 52.0461 45.2589C55.0652 41.6776 57.897 37.886 60.5729 34.0402C61.1443 33.219 61.5572 32.4409 62.0734 31.5886C62.1091 31.5298 62.2718 31.4625 62.3451 31.436Z" fill="#4A4A4A"/>
<path d="M49.3118 48.7998L49.3613 48.8093C49.3531 49.2474 49.3616 49.6295 49.3776 50.0649L50.197 50.0942C51.0309 50.6035 51.8995 52.0528 52.5003 52.8825L55.483 56.9505L71.8238 79.1746L77.7665 87.2646C78.1963 87.8388 79.2758 89.4695 79.6232 89.8502C79.3863 90.1395 78.9519 90.7476 78.7188 90.9545H77.2242C77.0683 90.837 76.6468 90.701 76.4366 90.5841C73.777 89.1042 71.1966 87.4237 68.6148 85.8103C63.8306 82.7763 59.0312 79.7667 54.2168 76.7813C53.34 76.2352 52.4687 75.6929 51.5998 75.1347C51.0433 74.7776 49.9526 73.9715 49.385 73.7352C49.2699 73.115 49.3051 71.8529 49.3062 71.165L49.3111 67.097C49.3107 61.4606 49.3858 55.6647 49.3115 50.0486C49.3086 49.6323 49.3087 49.2161 49.3118 48.7998Z" fill="#868686"/>
<path d="M62.3451 31.436C63.5194 31.3872 64.6765 31.4315 65.8466 31.3969C66.5671 31.3525 67.2755 31.1734 67.9991 31.1841C68.6391 31.1934 69.3232 31.3563 69.9594 31.3695C73.4864 31.4427 76.9745 32.0839 80.4989 32.2271C81.1447 32.2862 81.7872 32.3658 82.4343 32.4153C83.0858 32.4651 83.7558 32.4131 84.4034 32.4389C85.8923 32.4941 87.3479 32.2291 88.8279 32.1738C89.9801 32.1308 91.0557 32.3012 92.1812 32.3898C93.5685 32.4991 94.7565 32.6474 96.064 33.1537C96.246 33.2244 96.5832 33.3289 96.7761 33.3719C96.9722 34.9916 96.4836 34.5486 95.095 35.0764C91.6172 36.3976 88.0141 37.4199 84.4814 38.5701L73.5228 42.2223C68.8103 43.7383 64.0755 45.1867 59.3213 46.5669C57.5911 47.0663 55.8886 47.566 54.1471 48.0341C52.3022 48.5298 51.2898 48.8033 49.3613 48.8093L49.3118 48.7999C49.3136 48.3772 49.3179 47.9547 49.3246 47.5321L50.2387 47.517C50.5614 47.2145 51.6589 45.7183 52.0461 45.2589C55.0653 41.6776 57.897 37.886 60.5729 34.0402C61.1443 33.219 61.5572 32.4409 62.0734 31.5886C62.1091 31.5298 62.2718 31.4625 62.3451 31.436Z" fill="#868686"/>
<path d="M1.22562 33.1309C1.32677 33.4298 2.25375 34.3724 2.57098 34.8645C4.12725 35.4492 5.95671 35.9003 7.57723 36.3637C9.85415 37.0306 12.127 37.7115 14.3955 38.4065C22.1575 40.8804 29.9424 43.2816 37.7493 45.61C40.8595 46.5104 43.963 47.4253 47.1094 48.1872C47.5001 48.2819 48.2165 48.4415 48.5453 48.6505C48.5361 48.9913 43.9969 50.6715 43.3079 50.9461L27.9677 57.0801C27.2592 57.3632 26.5436 57.6596 25.8267 57.9169C25.1613 58.1558 25.5006 57.9314 25.3379 58.4682C25.2769 58.0072 25.3101 57.8574 24.9338 57.5331C24.1778 56.8816 23.3937 56.2616 22.6206 55.6301C21.3395 54.5827 20.0717 53.5192 18.8176 52.4398C14.7435 48.957 10.6943 45.3378 6.61078 41.895L2.85839 38.7824C2.19388 38.232 1.55324 37.6983 0.914695 37.1193C0.317368 36.5776 0.304312 35.4893 0 35.1561V34.5676C0.255466 34.1775 0.843848 33.4106 1.22562 33.1309Z" fill="#868686"/>
<path d="M18.7651 89.2521C19.2412 89.0337 20.9387 88.2167 21.2784 87.8316C22.2525 86.7279 23.0523 85.3757 23.9355 84.1883C24.9648 82.8042 25.9752 81.4048 26.9773 80.0009L41.3396 59.9943L45.6469 53.9486C46.4547 52.8149 47.291 51.5644 48.2043 50.5197C48.5545 50.1191 48.8156 50.063 49.3115 50.0483C49.3859 55.6644 49.3107 61.4604 49.3111 67.0967L49.3062 71.1648C49.3051 71.8527 49.27 73.1148 49.385 73.735C48.6984 74.3105 47.1205 75.2398 46.2891 75.7623L40.6928 79.2874L28.7191 86.8397C26.5319 88.2161 24.3709 89.6136 22.1545 90.9543H20.5161C20.1842 90.7193 19.599 90.688 19.2824 90.497C19.0121 90.3335 18.8435 89.5676 18.7651 89.2521Z" fill="#4A4A4A"/>
<path d="M49.3091 0H51.5589L51.583 0.0669586C51.7793 0.605081 52.0609 1.09803 52.2766 1.62288C55.5995 9.70814 58.1648 18.0737 60.9828 26.3414C61.4973 27.8511 62.5453 29.8674 62.3452 31.4355C62.2719 31.462 62.1091 31.5293 62.0735 31.5881C61.5573 32.4403 61.1444 33.2185 60.573 34.0397C57.897 37.8855 55.0653 41.677 52.0462 45.2584C51.6589 45.7178 50.5615 47.2139 50.2387 47.5165L49.3247 47.5316L49.3091 0Z" fill="#4A4A4A"/>
</svg>
