<svg width="93" height="89" viewBox="0 0 93 89" fill="none" xmlns="http://www.w3.org/2000/svg">
<path d="M46.1142 0H47.1804C47.8161 0.366087 48.512 0.56445 48.9235 1.30354C49.4026 2.16417 49.7285 3.31428 50.0405 4.25829L51.3575 8.22384L56.6045 23.9232L58.2227 28.763C58.5247 29.6692 58.9138 30.9368 59.2849 31.7992C63.2307 32.7427 67.9072 32.543 71.9358 32.5987C73.9005 32.6258 75.7426 32.2862 77.6639 32.3339C78.5888 32.3632 79.5099 32.4693 80.4175 32.651C81.2415 32.8162 82.3797 33.1569 83.2056 33.1044C85.866 32.9351 88.6138 32.5599 91.2569 33.115C91.9697 33.2647 92.5759 33.9622 93 34.5034V36.6092C92.1179 37.759 91.0685 38.4254 89.913 39.2832L87.1811 41.3213C82.8888 44.4709 78.6425 47.6818 74.4422 50.9528C73.0312 52.0312 71.6375 53.1308 70.2597 54.2512C69.3929 54.9578 68.1838 55.7797 67.7137 56.7852C68.4783 59.0209 69.2377 61.692 69.9327 63.9783L73.3391 75.1426L75.3025 81.5721C75.9764 83.7711 76.8048 85.7401 76.3156 88.1009C76.1584 89.0526 74.1828 89.1519 73.5217 88.8443C72.0156 88.1429 70.3964 87.0562 68.979 86.172C64.6376 83.413 60.3344 80.5955 56.0704 77.7194C54.5532 76.7027 53.091 75.6013 51.5468 74.6184C50.038 73.659 48.5859 72.5251 46.8839 71.9289C45.9074 71.5874 44.8282 72.6551 44.0443 73.2112C43.1787 73.8317 42.2992 74.4324 41.4063 75.0127L27.8037 84.1392C25.6051 85.628 23.4718 87.2422 21.1693 88.5754C20.0736 89.2876 17.6676 89.0902 17.0936 87.7562C16.3034 85.9203 17.6136 82.8034 18.1971 80.9325L20.6772 72.9844L23.7016 63.1502C24.373 60.9387 25.0908 58.4591 25.862 56.3C24.5115 55.438 23.0252 54.1916 21.723 53.2041L12.5683 46.1698L5.07528 40.56C3.82993 39.6332 2.5431 38.7027 1.32934 37.7388C0.804207 37.3217 0.353864 36.6304 0 36.0602V34.7385C0.191482 34.4461 0.724391 33.6837 1.03146 33.551C4.49527 32.054 8.49762 33.3486 12.0968 33.041C13.0275 32.9614 13.8642 32.5907 14.8831 32.5928C19.8246 32.6028 24.7646 32.5984 29.706 32.6017C31.1928 32.6027 32.2474 32.6255 33.6987 32.2634C34.4594 31.1926 35.4453 27.8056 35.9221 26.3771C37.5576 21.4713 39.1225 16.5425 40.6165 11.5921C41.3603 9.16484 42.2549 6.75373 43.0267 4.33564C43.7543 2.05598 43.9314 1.15844 46.1142 0Z" fill="#9F633E"/>
</svg>
