<svg width="247" height="82" viewBox="0 0 247 82" fill="none" xmlns="http://www.w3.org/2000/svg">
<path d="M77.6994 59.6053L63.4432 34.9151L63.4683 34.899L60.7963 30.2708L56.2714 38.1089L68.1873 58.7468H39.8619L54.0241 34.2158V34.2194L58.5472 26.3813V26.3781L65.6109 14.147C67.0669 14.0295 68.4473 13.4498 69.5505 12.4923C70.6537 11.5348 71.422 10.2498 71.7433 8.82483C72.0645 7.39983 71.9219 5.90946 71.3362 4.57125C70.7506 3.23305 69.7525 2.11707 68.4877 1.38621C67.2229 0.65536 65.7577 0.347892 64.3058 0.508692C62.8539 0.669492 61.4914 1.29014 60.4172 2.28004C59.343 3.26995 58.6133 4.57728 58.3347 6.01121C58.056 7.44514 58.243 8.9306 58.8683 10.2508L54.0527 18.5959L49.5278 26.4304L42.1324 39.2406L30.3712 59.6089C29.9636 60.3158 29.7492 61.1176 29.7495 61.9336C29.7499 62.7496 29.965 63.5512 30.3732 64.2578C30.7815 64.9644 31.3685 65.551 32.0753 65.9589C32.7821 66.3668 33.5838 66.5814 34.3998 66.5813H73.6752C74.4915 66.5812 75.2933 66.3661 76.0001 65.9578C76.7068 65.5495 77.2937 64.9623 77.7015 64.2552C78.1094 63.5482 78.3239 62.7462 78.3235 61.93C78.3232 61.1137 78.1079 60.312 77.6994 59.6053ZM62.4953 5.83765C62.788 5.33045 63.2244 4.92145 63.7496 4.66236C64.2747 4.40327 64.8648 4.30573 65.4454 4.3821C66.026 4.45846 66.5708 4.70529 67.0111 5.09136C67.4514 5.47743 67.7672 5.9854 67.9187 6.55101C68.0703 7.11663 68.0506 7.71447 67.8624 8.26893C67.6741 8.82339 67.3256 9.30955 66.8609 9.66592C66.3963 10.0223 65.8364 10.2328 65.2521 10.271C64.6678 10.3091 64.0853 10.1731 63.5783 9.8801C62.8989 9.4874 62.4032 8.84102 62.2001 8.08302C61.9971 7.32502 62.1032 6.5174 62.4953 5.83765Z" fill="url(#paint0_linear_1_176)"/>
<path d="M30.9973 27.5849L40.7081 11.1513L47.2807 22.5373L51.8056 14.6997L45.1309 3.13523L45.1306 3.13583L44.6606 2.32505C44.2529 1.6187 43.6666 1.03202 42.9605 0.623914C42.2544 0.215808 41.4534 0.000636985 40.6378 1.41211e-06C39.8222 -0.000634161 39.0209 0.213288 38.3141 0.620293C37.6074 1.0273 37.0202 1.61306 36.6114 2.31878L6.30619 54.6494C4.85072 54.7658 3.47049 55.344 2.36671 56.2999C1.26292 57.2557 0.493302 58.5391 0.170047 59.963C-0.153209 61.3869 -0.0131984 62.8768 0.569666 64.2155C1.15253 65.5542 2.14777 66.6718 3.4103 67.4052C4.67283 68.1387 6.13663 68.4497 7.5883 68.2929C9.03998 68.1361 10.4036 67.5197 11.4804 66.5336C12.5572 65.5475 13.2909 64.2432 13.5745 62.8109C13.8581 61.3786 13.6767 59.8931 13.0569 58.5711L30.9973 27.5849ZM9.41727 62.9619C9.12422 63.4688 8.68746 63.8774 8.16221 64.1361C7.63696 64.3947 7.04681 64.4919 6.46636 64.4152C5.88591 64.3385 5.34123 64.0915 4.90117 63.7053C4.46111 63.3191 4.14544 62.8111 3.99406 62.2455C3.84268 61.6799 3.86239 61.0821 4.0507 60.5277C4.23901 59.9734 4.58746 59.4873 5.05201 59.1309C5.51655 58.7745 6.07633 58.5639 6.66057 58.5256C7.24481 58.4873 7.82728 58.6231 8.33435 58.9159C8.67138 59.1102 8.9668 59.369 9.20368 59.6776C9.44057 59.9862 9.61427 60.3385 9.71486 60.7143C9.81544 61.0901 9.84093 61.4821 9.78987 61.8677C9.7388 62.2534 9.61219 62.6252 9.41727 62.9619Z" fill="url(#paint1_linear_1_176)"/>
<path d="M1.75903 78.2301C1.75903 76.4038 3.15294 75.0715 5.03225 75.0715C5.46952 75.0542 5.90541 75.1311 6.31034 75.2971C6.71526 75.463 7.07977 75.7141 7.37913 76.0333L6.80567 76.5892C6.58462 76.3506 6.31526 76.1619 6.01553 76.0356C5.71581 75.9093 5.39261 75.8483 5.06747 75.8568C3.67356 75.8568 2.64134 76.8626 2.64134 78.2301C2.64134 79.5978 3.67356 80.6034 5.06747 80.6034C5.39318 80.6102 5.7166 80.5476 6.01628 80.4199C6.31596 80.2921 6.58505 80.1021 6.80567 79.8624L7.37913 80.4182C7.07903 80.7395 6.71334 80.9924 6.30689 81.1598C5.90043 81.3272 5.46272 81.4053 5.02344 81.3886C3.15294 81.3886 1.75903 80.0565 1.75903 78.2301Z" fill="url(#paint2_linear_1_176)"/>
<path d="M10.9446 78.2302C10.9446 76.4215 12.3385 75.0717 14.2354 75.0717C16.1145 75.0717 17.5086 76.4127 17.5086 78.2302C17.5086 80.0479 16.1145 81.3887 14.2354 81.3887C12.3385 81.3887 10.9446 80.0388 10.9446 78.2302ZM16.6263 78.2302C16.6316 77.754 16.4951 77.2871 16.2343 76.8887C15.9734 76.4904 15.5999 76.1786 15.1613 75.9931C14.7227 75.8076 14.2389 75.7568 13.7714 75.8471C13.3038 75.9374 12.8737 76.1648 12.5358 76.5002C12.1978 76.8357 11.9673 77.2641 11.8735 77.731C11.7798 78.1979 11.827 78.6821 12.0092 79.122C12.1915 79.5619 12.5004 79.9377 12.8969 80.2015C13.2933 80.4653 13.7592 80.6053 14.2354 80.6035C14.5506 80.6134 14.8644 80.5589 15.1578 80.4434C15.4512 80.3279 15.718 80.1537 15.9418 79.9316C16.1656 79.7094 16.3417 79.444 16.4594 79.1514C16.5771 78.8589 16.6339 78.5454 16.6263 78.2302Z" fill="url(#paint3_linear_1_176)"/>
<path d="M27.1086 75.1423V81.3183H26.3852L22.6797 76.7128V81.3183H21.7974V75.1423H22.5207L26.2263 79.7478V75.1423H27.1086Z" fill="url(#paint4_linear_1_176)"/>
<path d="M37.2116 75.1423V81.3183H36.4883L32.7827 76.7128V81.3183H31.9004V75.1423H32.624L36.3295 79.7478V75.1423H37.2116Z" fill="url(#paint5_linear_1_176)"/>
<path d="M46.4852 80.5506V81.3183H42.0032V75.1423H46.3617V75.9099H42.8855V77.8068H45.9824V78.5566H42.8855V80.5506L46.4852 80.5506Z" fill="url(#paint6_linear_1_176)"/>
<path d="M50.3242 78.2301C50.3242 76.4038 51.7181 75.0716 53.5972 75.0716C54.0345 75.0542 54.4704 75.1311 54.8753 75.2971C55.2803 75.463 55.6448 75.7141 55.9441 76.0333L55.3706 76.5892C55.1497 76.3506 54.8803 76.1618 54.5806 76.0356C54.2809 75.9093 53.9578 75.8483 53.6327 75.8568C52.2385 75.8568 51.2063 76.8626 51.2063 78.2301C51.2063 79.5978 52.2385 80.6034 53.6327 80.6034C53.9583 80.6102 54.2817 80.5476 54.5814 80.4199C54.881 80.2921 55.1501 80.1021 55.3706 79.8624L55.9441 80.4182C55.644 80.7395 55.2783 80.9924 54.8719 81.1598C54.4654 81.3272 54.0277 81.4053 53.5884 81.3886C51.7181 81.3886 50.3242 80.0566 50.3242 78.2301Z" fill="url(#paint7_linear_1_176)"/>
<path d="M61.3006 75.9099H59.1831V75.1423H64.2914V75.9099H62.1741V81.3183H61.3006V75.9099Z" fill="url(#paint8_linear_1_176)"/>
<path d="M72.6736 80.5506V81.3183H68.1917V75.1423H72.5501V75.9099H69.074V77.8068H72.1708V78.5566H69.074V80.5506L72.6736 80.5506Z" fill="url(#paint9_linear_1_176)"/>
<path d="M81.656 80.5506V81.3183H76.4946V80.7182L80.3765 75.9099H76.5565V75.1423H81.5413V75.7422L77.677 80.5506H81.656Z" fill="url(#paint10_linear_1_176)"/>
<path d="M95.0237 79.7742H91.7416L91.0623 81.3182H90.1536L92.9504 75.1423H93.8239L96.6296 81.3183H95.703L95.0237 79.7742ZM94.715 79.0685L93.3828 76.0422L92.0505 79.0685H94.715Z" fill="url(#paint11_linear_1_176)"/>
<path d="M100.301 78.6537V75.1423H101.183V78.6185C101.183 79.986 101.809 80.6035 102.921 80.6035C104.033 80.6035 104.668 79.986 104.668 78.6185V75.1423H105.524V78.6537C105.524 80.4447 104.544 81.3887 102.912 81.3887C101.289 81.3887 100.301 80.4447 100.301 78.6537Z" fill="url(#paint12_linear_1_176)"/>
<path d="M121.309 81.3183L121.3 76.8186L119.068 80.5682H118.662L116.43 76.8451V81.3183H115.583V75.1423H116.306L118.882 79.4832L121.423 75.1423H122.147L122.156 81.3182L121.309 81.3183Z" fill="url(#paint13_linear_1_176)"/>
<path d="M126.445 78.2302C126.445 76.4215 127.838 75.0717 129.735 75.0717C131.615 75.0717 133.009 76.4127 133.009 78.2302C133.009 80.0479 131.615 81.3887 129.735 81.3887C127.838 81.3887 126.445 80.0388 126.445 78.2302ZM132.126 78.2302C132.132 77.7541 131.995 77.2871 131.734 76.8888C131.473 76.4905 131.1 76.1788 130.661 75.9933C130.223 75.8078 129.739 75.757 129.271 75.8473C128.804 75.9376 128.374 76.165 128.036 76.5004C127.698 76.8359 127.467 77.2643 127.374 77.7311C127.28 78.1979 127.327 78.6821 127.509 79.122C127.692 79.5619 128.001 79.9377 128.397 80.2015C128.793 80.4653 129.259 80.6052 129.735 80.6035C130.051 80.6134 130.364 80.5589 130.658 80.4434C130.951 80.3279 131.218 80.1537 131.442 79.9316C131.666 79.7094 131.842 79.444 131.959 79.1514C132.077 78.8589 132.134 78.5454 132.126 78.2302Z" fill="url(#paint14_linear_1_176)"/>
<path d="M142.609 75.1423V81.3183H141.885L138.18 76.7128V81.3183H137.298V75.1423H138.021L141.727 79.7478V75.1423H142.609Z" fill="url(#paint15_linear_1_176)"/>
<path d="M147.401 75.1423H150.003C151.989 75.1423 153.338 76.3951 153.338 78.2302C153.338 80.0654 151.989 81.3182 150.003 81.3182H147.401V75.1423ZM149.95 80.5506C151.477 80.5506 152.456 79.6155 152.456 78.2302C152.456 76.8451 151.477 75.9099 149.95 75.9099H148.283V80.5506L149.95 80.5506Z" fill="url(#paint16_linear_1_176)"/>
<path d="M162.109 80.5506V81.3183H157.627V75.1423H161.985V75.9099H158.509V77.8068H161.606V78.5566H158.509V80.5506L162.109 80.5506Z" fill="url(#paint17_linear_1_176)"/>
<path d="M171.789 75.1423H174.392C176.377 75.1423 177.727 76.3951 177.727 78.2302C177.727 80.0654 176.377 81.3182 174.392 81.3182H171.789V75.1423ZM174.339 80.5506C175.865 80.5506 176.844 79.6155 176.844 78.2302C176.844 76.8451 175.865 75.9099 174.339 75.9099H172.671V80.5506L174.339 80.5506Z" fill="url(#paint18_linear_1_176)"/>
<path d="M186.497 80.5506V81.3183H182.015V75.1423H186.374V75.9099H182.897V77.8068H185.994V78.5566H182.897V80.5506L186.497 80.5506Z" fill="url(#paint19_linear_1_176)"/>
<path d="M196.177 75.1423H198.78C200.765 75.1423 202.115 76.3951 202.115 78.2302C202.115 80.0654 200.765 81.3182 198.78 81.3182H196.177V75.1423ZM198.727 80.5506C200.253 80.5506 201.232 79.6155 201.232 78.2302C201.232 76.8451 200.253 75.9099 198.727 75.9099H197.059V80.5506L198.727 80.5506Z" fill="url(#paint20_linear_1_176)"/>
<path d="M210.885 80.5506V81.3183H206.403V75.1423H210.762V75.9099H207.286V77.8068H210.383V78.5566H207.286V80.5506L210.885 80.5506Z" fill="url(#paint21_linear_1_176)"/>
<path d="M220.979 81.3183L220.971 76.8186L218.738 80.5682H218.332L216.101 76.8451V81.3183H215.253V75.1423H215.977L218.553 79.4832L221.094 75.1423H221.817L221.826 81.3182L220.979 81.3183Z" fill="url(#paint22_linear_1_176)"/>
<path d="M230.553 79.7742H227.271L226.592 81.3182H225.683L228.48 75.1423H229.353L232.159 81.3182H231.232L230.553 79.7742ZM230.244 79.0685L228.912 76.0422L227.58 79.0685H230.244Z" fill="url(#paint23_linear_1_176)"/>
<path d="M236.015 75.1423H236.898V81.3183H236.015V75.1423Z" fill="url(#paint24_linear_1_176)"/>
<path d="M247 75.1423V81.3183H246.277L242.571 76.7128V81.3183H241.689V75.1423H242.412L246.118 79.7478V75.1423H247Z" fill="url(#paint25_linear_1_176)"/>
<path d="M125.197 17.5685H116.675V13.5279H138.494V17.5685H129.972V39.2416H125.197V17.5685Z" fill="#1BACE1"/>
<path d="M161.378 35.2375V39.2416H142.093V13.5279H160.864V17.5317H146.868V24.2175H159.284V28.1479H146.868V35.2375H161.378Z" fill="#1BACE1"/>
<path d="M166.703 13.5279H171.479V35.2008H184.924V39.2416H166.703V13.5279Z" fill="#1BACE1"/>
<path d="M188.706 13.5279H193.481V39.2416H188.706V13.5279Z" fill="#1BACE1"/>
<path d="M219.708 35.2375V39.2416H200.423V13.5279H219.194V17.5317H205.198V24.2175H217.614V28.1479H205.198V35.2375H219.708Z" fill="#1BACE1"/>
<path d="M95.2561 39.2416L104.021 23.0247L112.786 39.2416H117.919L113.045 30.2243L104.021 13.528L94.9968 30.2243L90.123 39.2416H95.2561Z" fill="#1BACE1"/>
<path d="M241.086 30.7927C244.576 29.4336 246.559 26.5684 246.559 22.6746C246.559 16.9808 242.372 13.5279 235.613 13.5279H225.033V17.5685H235.392C239.58 17.5685 241.747 19.442 241.747 22.6746C241.747 25.9071 239.58 27.8174 235.392 27.8174H225.033V39.2416H229.809V31.7478H235.613C235.944 31.7539 236.275 31.7416 236.604 31.711L241.857 39.2416H247L241.086 30.7927Z" fill="#1BACE1"/>
<path d="M92.8376 50.4418H90.1233V65.0572H92.8376V50.4418Z" fill="#383E68"/>
<path d="M107.077 60.3386L99.0174 50.4418H96.7832V65.0571H99.4767V55.1606L107.536 65.0571H109.77V50.4418H107.077V60.3386Z" fill="#383E68"/>
<path d="M113.695 65.0571H116.409V59.4615H123.466V57.1648H116.409V52.7175H124.364V50.4418H113.695V65.0571Z" fill="#383E68"/>
<path d="M133.654 50.2329C129.123 50.2329 125.783 53.4274 125.783 57.7494C125.783 62.0713 129.123 65.2659 133.654 65.2659C138.185 65.2659 141.526 62.0922 141.526 57.7494C141.526 53.4065 138.185 50.2329 133.654 50.2329ZM133.654 62.8857C130.71 62.8857 128.518 60.7351 128.518 57.7494C128.518 54.7637 130.71 52.6132 133.654 52.6132C136.598 52.6132 138.79 54.7637 138.79 57.7494C138.79 60.7351 136.598 62.8857 133.654 62.8857Z" fill="#383E68"/>
<path d="M154.699 60.3386L146.64 50.4418H144.406V65.0571H147.099V55.1606L155.159 65.0571H157.393V50.4418H154.699V60.3386Z" fill="#383E68"/>
<path d="M171.318 58.5847C171.318 61.5912 169.982 62.8857 167.623 62.8857C165.263 62.8857 163.906 61.5912 163.906 58.5847V50.4418H161.192V58.6891C161.192 62.9484 163.593 65.266 167.602 65.266C171.59 65.266 173.991 62.9484 173.991 58.6891V50.4418H171.318V58.5847Z" fill="#383E68"/>
<path d="M191.528 50.4418L185.828 60.1297L180.023 50.4418H177.789V65.0571H180.378V55.4945L185.181 63.3869H186.392L191.194 55.3692L191.215 65.0571H193.783L193.762 50.4418H191.528Z" fill="#383E68"/>
<path d="M200.442 58.7517H207.499V56.5177H200.442V52.7175H208.397V50.4418H197.728V65.0571H208.689V62.7813H200.442V58.7517Z" fill="#383E68"/>
<path d="M229.692 50.4418H226.978V65.0572H229.692V50.4418Z" fill="#383E68"/>
<path d="M240.486 56.977L246.624 50.4418H243.576L236.352 57.9374V50.4418H233.637V65.0571H236.352V61.3199L238.669 58.9395L243.827 65.0571H247L240.486 56.977Z" fill="#383E68"/>
<path d="M223.951 55.745C223.951 52.5088 221.571 50.5462 217.729 50.5462H211.716V52.8428H217.604C219.984 52.8428 221.216 53.9077 221.216 55.745C221.216 57.5824 219.984 58.6682 217.604 58.6682H211.716V65.1615H214.43V60.9022H217.729C217.917 60.9056 218.106 60.8987 218.293 60.8813L221.279 65.1615H224.202L220.84 60.3593C222.824 59.5868 223.951 57.9583 223.951 55.745Z" fill="#383E68"/>
<defs>
<linearGradient id="paint0_linear_1_176" x1="8.41821" y1="71.3487" x2="95.204" y2="17.2217" gradientUnits="userSpaceOnUse">
<stop stop-color="#383E68"/>
<stop offset="0.70797" stop-color="#1BACE1"/>
<stop offset="1" stop-color="#1BACE1"/>
</linearGradient>
<linearGradient id="paint1_linear_1_176" x1="-3.90211" y1="51.5944" x2="82.8837" y2="-2.53259" gradientUnits="userSpaceOnUse">
<stop stop-color="#383E68"/>
<stop offset="0.70797" stop-color="#1BACE1"/>
<stop offset="1" stop-color="#1BACE1"/>
</linearGradient>
<linearGradient id="paint2_linear_1_176" x1="6.89458" y1="78.3378" x2="237.667" y2="91.6808" gradientUnits="userSpaceOnUse">
<stop stop-color="#EA002D"/>
<stop offset="1" stop-color="#C3002E"/>
</linearGradient>
<linearGradient id="paint3_linear_1_176" x1="6.92537" y1="77.8076" x2="237.697" y2="91.1505" gradientUnits="userSpaceOnUse">
<stop stop-color="#EA002D"/>
<stop offset="1" stop-color="#C3002E"/>
</linearGradient>
<linearGradient id="paint4_linear_1_176" x1="6.95945" y1="77.2188" x2="237.731" y2="90.5617" gradientUnits="userSpaceOnUse">
<stop stop-color="#EA002D"/>
<stop offset="1" stop-color="#C3002E"/>
</linearGradient>
<linearGradient id="paint5_linear_1_176" x1="6.99318" y1="76.6366" x2="237.765" y2="89.9796" gradientUnits="userSpaceOnUse">
<stop stop-color="#EA002D"/>
<stop offset="1" stop-color="#C3002E"/>
</linearGradient>
<linearGradient id="paint6_linear_1_176" x1="7.02508" y1="76.0819" x2="237.797" y2="89.4248" gradientUnits="userSpaceOnUse">
<stop stop-color="#EA002D"/>
<stop offset="1" stop-color="#C3002E"/>
</linearGradient>
<linearGradient id="paint7_linear_1_176" x1="7.05656" y1="75.5393" x2="237.829" y2="88.8822" gradientUnits="userSpaceOnUse">
<stop stop-color="#EA002D"/>
<stop offset="1" stop-color="#C3002E"/>
</linearGradient>
<linearGradient id="paint8_linear_1_176" x1="7.08739" y1="75.0093" x2="237.859" y2="88.3522" gradientUnits="userSpaceOnUse">
<stop stop-color="#EA002D"/>
<stop offset="1" stop-color="#C3002E"/>
</linearGradient>
<linearGradient id="paint9_linear_1_176" x1="7.11247" y1="74.5728" x2="237.885" y2="87.9157" gradientUnits="userSpaceOnUse">
<stop stop-color="#EA002D"/>
<stop offset="1" stop-color="#C3002E"/>
</linearGradient>
<linearGradient id="paint10_linear_1_176" x1="7.14118" y1="74.0745" x2="237.913" y2="87.4174" gradientUnits="userSpaceOnUse">
<stop stop-color="#EA002D"/>
<stop offset="1" stop-color="#C3002E"/>
</linearGradient>
<linearGradient id="paint11_linear_1_176" x1="7.18448" y1="73.327" x2="237.957" y2="86.6699" gradientUnits="userSpaceOnUse">
<stop stop-color="#EA002D"/>
<stop offset="1" stop-color="#C3002E"/>
</linearGradient>
<linearGradient id="paint12_linear_1_176" x1="7.22302" y1="72.6608" x2="237.995" y2="86.0037" gradientUnits="userSpaceOnUse">
<stop stop-color="#EA002D"/>
<stop offset="1" stop-color="#C3002E"/>
</linearGradient>
<linearGradient id="paint13_linear_1_176" x1="7.27395" y1="71.7782" x2="238.046" y2="85.1212" gradientUnits="userSpaceOnUse">
<stop stop-color="#EA002D"/>
<stop offset="1" stop-color="#C3002E"/>
</linearGradient>
<linearGradient id="paint14_linear_1_176" x1="7.31013" y1="71.1518" x2="238.082" y2="84.4947" gradientUnits="userSpaceOnUse">
<stop stop-color="#EA002D"/>
<stop offset="1" stop-color="#C3002E"/>
</linearGradient>
<linearGradient id="paint15_linear_1_176" x1="7.34425" y1="70.563" x2="238.116" y2="83.9059" gradientUnits="userSpaceOnUse">
<stop stop-color="#EA002D"/>
<stop offset="1" stop-color="#C3002E"/>
</linearGradient>
<linearGradient id="paint16_linear_1_176" x1="7.37385" y1="70.055" x2="238.146" y2="83.3979" gradientUnits="userSpaceOnUse">
<stop stop-color="#EA002D"/>
<stop offset="1" stop-color="#C3002E"/>
</linearGradient>
<linearGradient id="paint17_linear_1_176" x1="7.41036" y1="69.419" x2="238.182" y2="82.7619" gradientUnits="userSpaceOnUse">
<stop stop-color="#EA002D"/>
<stop offset="1" stop-color="#C3002E"/>
</linearGradient>
<linearGradient id="paint18_linear_1_176" x1="7.45504" y1="68.6496" x2="238.227" y2="81.9925" gradientUnits="userSpaceOnUse">
<stop stop-color="#EA002D"/>
<stop offset="1" stop-color="#C3002E"/>
</linearGradient>
<linearGradient id="paint19_linear_1_176" x1="7.49151" y1="68.0136" x2="238.264" y2="81.3565" gradientUnits="userSpaceOnUse">
<stop stop-color="#EA002D"/>
<stop offset="1" stop-color="#C3002E"/>
</linearGradient>
<linearGradient id="paint20_linear_1_176" x1="7.53618" y1="67.2442" x2="238.308" y2="80.5871" gradientUnits="userSpaceOnUse">
<stop stop-color="#EA002D"/>
<stop offset="1" stop-color="#C3002E"/>
</linearGradient>
<linearGradient id="paint21_linear_1_176" x1="7.57233" y1="66.6082" x2="238.345" y2="79.9512" gradientUnits="userSpaceOnUse">
<stop stop-color="#EA002D"/>
<stop offset="1" stop-color="#C3002E"/>
</linearGradient>
<linearGradient id="paint22_linear_1_176" x1="7.60555" y1="66.0346" x2="238.378" y2="79.3776" gradientUnits="userSpaceOnUse">
<stop stop-color="#EA002D"/>
<stop offset="1" stop-color="#C3002E"/>
</linearGradient>
<linearGradient id="paint23_linear_1_176" x1="7.63552" y1="65.517" x2="238.408" y2="78.86" gradientUnits="userSpaceOnUse">
<stop stop-color="#EA002D"/>
<stop offset="1" stop-color="#C3002E"/>
</linearGradient>
<linearGradient id="paint24_linear_1_176" x1="7.66513" y1="65.0019" x2="238.438" y2="78.3449" gradientUnits="userSpaceOnUse">
<stop stop-color="#EA002D"/>
<stop offset="1" stop-color="#C3002E"/>
</linearGradient>
<linearGradient id="paint25_linear_1_176" x1="7.69215" y1="64.5473" x2="238.464" y2="77.8903" gradientUnits="userSpaceOnUse">
<stop stop-color="#EA002D"/>
<stop offset="1" stop-color="#C3002E"/>
</linearGradient>
</defs>
</svg>
