<svg width="11" height="15" viewBox="0 0 11 15" fill="none" xmlns="http://www.w3.org/2000/svg">
<path fill-rule="evenodd" clip-rule="evenodd" d="M8.5483 1.45299C6.91406 -0.349055 4.0818 -0.398238 2.14401 0.882681C1.99248 0.995869 1.85037 1.11401 1.70943 1.2401C1.65902 1.28426 1.60805 1.3284 1.55611 1.37389C0.690744 2.18045 0.0600071 3.40743 0.00435638 4.59753C-0.0125513 5.23405 0.0119705 5.82599 0.226036 6.43151C0.250807 6.50539 0.27571 6.58 0.301231 6.65612C0.562661 7.37012 0.941813 8.00894 1.32565 8.66295C1.52542 9.0068 1.71811 9.3546 1.91158 9.70202C2.23309 10.2778 2.55788 10.8517 2.88619 11.4237C3.11159 11.817 3.33353 12.2122 3.55416 12.6083C3.71189 12.8911 3.87085 13.1737 4.02975 13.4559C4.09744 13.5764 4.16486 13.6974 4.2319 13.8182C4.31279 13.9638 4.39523 14.1083 4.47799 14.2528C4.50047 14.294 4.52319 14.3354 4.54635 14.3778C4.6519 14.5587 4.71976 14.648 4.91549 14.7294C5.08004 14.7251 5.08068 14.7253 5.17916 14.6454C5.30301 14.4994 5.39296 14.3479 5.48776 14.1815C5.52752 14.1121 5.56788 14.0421 5.60885 13.9706C5.65141 13.8956 5.6939 13.8203 5.73776 13.743C5.78283 13.6642 5.82836 13.5855 5.8735 13.5067C5.96739 13.3426 6.06111 13.1777 6.15475 13.0135C6.36833 12.6393 6.58468 12.2665 6.80026 11.8934C6.8845 11.7474 6.96798 11.601 7.05221 11.4549C7.0939 11.3827 7.13621 11.3106 7.17916 11.2362C7.3055 11.0172 7.43173 10.798 7.55807 10.579C7.59984 10.5066 7.64199 10.4338 7.68502 10.3592C7.76875 10.2141 7.85232 10.0689 7.936 9.9237C8.13141 9.58474 8.32731 9.24538 8.52389 8.90709C8.59291 8.78829 8.662 8.66952 8.73092 8.55065C8.81722 8.40185 8.90405 8.25296 8.99068 8.10436C9.6266 7.00679 9.62617 7.00637 9.81686 6.41491C9.84859 6.31867 9.84898 6.31863 9.88131 6.22057C10.256 4.87619 9.93095 3.56008 9.2651 2.37194C9.0911 2.08101 8.88162 1.82677 8.65377 1.57702C8.61902 1.53611 8.58411 1.49514 8.5483 1.45299ZM4.27584 3.24206C4.92191 2.97675 5.59661 3.06207 6.15963 3.46569C6.53584 3.7933 6.80425 4.23977 6.85201 4.7401C6.85838 5.27593 6.74471 5.74907 6.38033 6.15807C5.97687 6.531 5.55872 6.78054 5.00045 6.79479C4.41045 6.7683 3.97688 6.5194 3.57369 6.09948C3.20699 5.638 3.13454 5.11814 3.19283 4.54381C3.39289 3.94385 3.71172 3.53907 4.27584 3.24206Z" fill="#1BACE1"/>
</svg>
