<svg width="24" height="34" viewBox="0 0 24 34" fill="none" xmlns="http://www.w3.org/2000/svg">
<path d="M14.7372 0.0298609C16.5631 -0.12284 18.3901 0.31293 19.9469 1.27244C21.8825 2.46826 23.2593 4.37937 23.7734 6.58415C24.0655 7.83821 23.9917 9.50776 23.9916 10.8297L23.9913 15.7821L23.9924 20.26C23.9924 21.469 24.0324 22.7956 23.8416 23.9803C23.591 25.551 23.0226 27.0551 22.1707 28.4019C20.4871 31.0797 17.8009 32.9841 14.7028 33.6961C11.5989 34.4055 8.33808 33.8616 5.63868 32.1831C2.94598 30.508 1.03322 27.8405 0.320491 24.7666C-0.0892992 22.9782 0.0196868 20.8847 0.01994 19.0314L0.0213507 12.9905L0.0217481 8.83987C0.0208077 8.0736 -0.111725 6.48663 0.288914 5.87166C0.53868 5.49341 0.929624 5.22919 1.37569 5.1371C1.82867 5.04414 2.30028 5.1353 2.68501 5.39026C3.04846 5.63186 3.30065 6.00656 3.38645 6.43234C3.46498 6.80679 3.43995 7.49256 3.43817 7.90603L3.43362 9.91351L3.43409 18.3397L3.43333 20.8753C3.43354 21.8946 3.40938 22.787 3.61241 23.801C4.06485 26.0022 5.37781 27.9357 7.26367 29.178C9.15806 30.4304 11.4775 30.8809 13.7077 30.4297C16.0543 29.9552 17.9239 28.6248 19.2352 26.6554C20.7432 24.3596 20.5772 22.2883 20.5759 19.696L20.5752 14.4012L20.5764 10.2921C20.5765 9.58725 20.6096 8.48567 20.5208 7.8227C20.3457 6.48153 19.6371 5.26571 18.553 4.44655C17.4698 3.62413 16.1017 3.26272 14.75 3.44181C13.3852 3.62474 12.1505 4.34121 11.3203 5.43194C10.8166 6.09847 10.4861 6.87795 10.3582 7.70145C10.2581 8.3678 10.2963 9.7658 10.2964 10.4977L10.2978 15.4913L10.2953 20.0221C10.295 20.8182 10.2579 21.7143 10.3449 22.4915C10.4339 23.287 11.4906 23.9509 12.2648 23.7847C12.7438 23.7214 13.4722 23.2328 13.5936 22.7258C13.8079 21.8306 13.7159 20.5534 13.7158 19.6257L13.7157 12.1174L13.7138 9.78903C13.7133 9.07414 13.6136 8.06631 14.0583 7.47748C14.3349 7.11463 14.7466 6.87713 15.2011 6.81821C16.1241 6.69488 17.063 7.36485 17.1236 8.31032C17.1683 9.00812 17.1433 9.75457 17.1424 10.4578L17.1403 14.5141L17.1423 19.8874C17.1429 20.6755 17.1874 22.2151 17.0656 22.9384C16.9188 23.8197 16.5414 24.6473 15.9713 25.3385C15.1182 26.3713 13.8877 27.0269 12.5489 27.1618C11.1386 27.2987 9.82116 26.9223 8.72569 26.0225C7.67599 25.1632 7.01708 23.9222 6.89634 22.577C6.83532 21.92 6.86614 20.8633 6.86646 20.1828L6.86853 15.9819L6.86733 10.8062C6.86708 9.57806 6.79958 8.00912 7.03401 6.8376C7.31167 5.44437 7.93719 4.14262 8.85331 3.05171C10.3579 1.26285 12.41 0.238716 14.7372 0.0298609Z" fill="white"/>
</svg>
