<svg width="14030" height="8775" viewBox="0 0 14030 8775" fill="none" xmlns="http://www.w3.org/2000/svg">
<path d="M12105.5 8743.93C12105.5 8743.93 13113.1 8982.77 13609.1 7900.34C14252.7 6496.03 13349.5 5162.01 11791.5 5065.93C9544.35 4927.36 10789.7 1340.22 7243.82 2313.51C6246.77 2587.18 4078.13 1174.39 2801.51 3568.2C2584.43 3975.24 1935.51 3955.26 1070.95 4649.67C-454.159 5874.63 94.863 8756.92 1379.87 8770.02C2664.88 8783.13 12105.5 8743.93 12105.5 8743.93Z" fill="#D9E9FE"/>
<path d="M1604.52 8764.8C1604.52 8764.8 1651.35 8457.93 2249.02 8375.37C2846.69 8292.8 3402.42 7630.86 4388.05 7726.93C5373.68 7823 6191.54 8425.83 7313.48 8241.12C8435.42 8056.4 9137.94 8291.84 9389.58 8477.53C9641.24 8663.22 10682.7 8433.95 10759.7 8774.2L1604.52 8764.8Z" fill="#1BACE1"/>
<path d="M4061.32 1452.39C4061.32 1452.39 3386.77 1419.4 3744.61 3475C3744.61 3475 3985.34 4172.77 3681.45 4622.5H8154.96V1452.39H4061.32Z" fill="#AFCDFB"/>
<path d="M4520.76 6796.73C4520.76 6796.73 4208.23 6432.17 4501.49 6200.6C4501.49 6200.6 4715.69 6070.94 4890.35 6081.47C4890.35 6081.47 4642.86 6496.42 4722.93 6537.71C4803 6578.98 4965.37 6055.44 4965.37 6055.44C4965.37 6055.44 5452.82 6008.18 5609.65 6083.57C5609.65 6083.57 5192.93 6424.53 5280.69 6444.83C5368.46 6465.13 5818.56 6130.46 5818.56 6130.46C5818.56 6130.46 6272.26 6207.66 6248.07 6484.39C6223.87 6761.11 6067.54 6846.57 5998.84 6839.2C5930.13 6831.85 5528.21 6678.44 5519.45 6734.73C5510.69 6791.02 5752.63 6974.99 5922.05 6983.59C5922.05 6983.59 5602.19 7336.3 5389.6 7234.51C5177.02 7132.71 5158.88 6971.36 5026.36 6910.83C4893.85 6850.32 4780.72 6850.47 4835.44 6912.19C4890.15 6973.91 5129.97 7033.9 5205.74 7167.93C5281.54 7301.96 5349.52 7392.35 5129.59 7359.26C4909.65 7326.17 4552.14 7165.27 4536.44 6981C4520.76 6796.73 4520.76 6796.73 4520.76 6796.73Z" fill="#3566C9"/>
<path d="M6025.15 6491.84C6025.15 6491.84 4792.9 6444.36 4520.78 6796.73C4520.78 6796.73 4460.59 6976.95 4275.39 7141.06L4246.52 7219.73C4246.52 7219.73 4460.06 6994.61 4536.46 6980.98C4536.46 6980.98 4416.98 6544.44 6025.15 6491.84Z" fill="#3566C9"/>
<path d="M4275.4 7141.05C4275.4 7141.05 4010.91 7336.63 3992.54 7686.1L4040.54 7690.39C4040.54 7690.39 4125.02 7329.06 4277.7 7187.75C4430.38 7046.44 4275.4 7141.05 4275.4 7141.05Z" fill="#3566C9"/>
<path d="M3428.07 6338.25C3428.07 6338.25 3925.22 6059.89 3693.21 5682.09C3693.21 5682.09 3507.61 5450.12 3308.75 5390.47C3308.75 5390.47 3414.81 5953.84 3308.75 5967.09C3202.69 5980.34 3235.84 5330.81 3235.84 5330.81C3235.84 5330.81 2712.16 5078.95 2506.67 5098.84C2506.67 5098.84 2831.47 5648.95 2725.42 5635.69C2619.37 5622.44 2254.79 5065.7 2254.79 5065.7C2254.79 5065.7 1717.86 4966.28 1631.69 5284.42C1545.52 5602.55 1684.72 5761.62 1764.27 5781.51C1843.81 5801.39 2354.22 5794.76 2340.96 5861.04C2327.71 5927.32 1983.01 6033.36 1790.78 5973.72C1790.78 5973.72 2002.9 6497.32 2281.3 6470.8C2559.7 6444.3 2645.88 6271.97 2818.23 6258.71C2990.57 6245.46 3116.52 6291.85 3030.35 6338.25C2944.17 6384.64 2652.51 6353.46 2513.31 6471.78C2374.11 6590.1 2261.41 6663.02 2519.93 6716.03C2778.45 6769.06 3242.46 6735.92 3335.26 6537.08C3428.07 6338.25 3428.07 6338.25 3428.07 6338.25Z" fill="#6D89D0"/>
<path d="M1876.95 5383.83C1876.95 5383.83 3268.98 5834.53 3428.07 6338.25C3428.07 6338.25 3421.44 6563.59 3560.64 6822.08V6921.5C3560.64 6921.5 3414.82 6583.49 3335.27 6537.09C3335.27 6537.09 3646.82 6099.64 1876.95 5383.83Z" fill="#6D89D0"/>
<path d="M3560.64 6822.09C3560.64 6822.09 3775.31 7148.04 3652.93 7544.82L3597.7 7529.97C3597.7 7529.97 3651.31 7092.95 3538.99 6873.16C3426.68 6653.36 3560.64 6822.09 3560.64 6822.09Z" fill="#6D89D0"/>
<path d="M4218.98 5954.33C4218.98 5954.33 3563.64 5587.38 3869.47 5089.39C3869.47 5089.39 4114.13 4783.6 4376.26 4704.97C4376.26 4704.97 4236.46 5447.6 4376.26 5465.07C4516.07 5482.54 4472.38 4626.34 4472.38 4626.34C4472.38 4626.34 5162.67 4294.34 5433.55 4320.55C5433.55 4320.55 5005.39 5045.7 5145.2 5028.23C5285.01 5010.75 5765.59 4276.87 5765.59 4276.87C5765.59 4276.87 6473.35 4145.81 6586.95 4565.18C6700.53 4984.55 6517.05 5194.23 6412.19 5220.44C6307.33 5246.64 5634.52 5237.91 5652 5325.28C5669.47 5412.64 6123.84 5552.43 6377.23 5473.8C6377.23 5473.8 6097.62 6164 5730.63 6129.05C5363.64 6094.1 5250.05 5866.95 5022.87 5849.48C4795.68 5832 4629.66 5893.17 4743.26 5954.32C4856.84 6015.48 5241.31 5974.36 5424.81 6130.34C5608.3 6286.32 5756.84 6382.42 5416.07 6452.31C5075.28 6522.21 4463.63 6478.52 4341.3 6216.42C4218.98 5954.33 4218.98 5954.33 4218.98 5954.33Z" fill="#1BACE1"/>
<path d="M6263.69 4696.25C6263.69 4696.25 4428.74 5290.34 4219.03 5954.34C4219.03 5954.34 4227.77 6251.39 4044.27 6592.12V6723.17C4044.27 6723.17 4236.5 6277.59 4341.36 6216.43C4341.36 6216.43 3930.68 5639.82 6263.69 4696.25Z" fill="#6D89D0"/>
<path d="M4044.27 6592.1C4044.27 6592.1 3761.28 7021.76 3922.6 7544.79L3995.41 7525.24C3995.41 7525.24 3924.73 6949.16 4072.79 6659.43C4220.84 6369.69 4044.27 6592.1 4044.27 6592.1Z" fill="#6D89D0"/>
<path d="M4196.91 8678.98C4905.89 8678.98 5480.62 8104.32 5480.62 7395.44H2913.2C2913.2 8104.32 3487.94 8678.98 4196.91 8678.98Z" fill="#ACE7F7"/>
<path d="M4512.8 8669.17C4460.59 8675.69 4407.35 8678.99 4353.32 8678.99C3644.36 8678.99 3069.67 8104.31 3069.67 7395.44H3388.59C3388.59 8050.34 3879.09 8590.64 4512.8 8669.17Z" fill="#ACE7F7"/>
<path d="M5498.34 8744.3H2895.47C2895.47 8656.84 2966.37 8585.94 3053.85 8585.94H5339.96C5427.43 8585.94 5498.34 8656.84 5498.34 8744.3Z" fill="#ACE7F7"/>
<path d="M5509.82 7395.44H2871V7434.82H5509.82V7395.44Z" fill="#ACE7F7"/>
<path d="M8842.08 2515.13C8842.08 2515.13 8617.2 2090.87 8954.14 1929.31C8954.14 1929.31 9191.59 1849.82 9359.68 1898.42C9359.68 1898.42 9027.13 2248.95 9096.19 2306.79C9165.24 2364.63 9438.58 1889.49 9438.58 1889.49C9438.58 1889.49 9924.53 1950.36 10061 2058.31C10061 2058.31 9579.56 2299.52 9660.73 2338.58C9741.91 2377.64 10254.5 2149.92 10254.5 2149.92C10254.5 2149.92 10680.2 2324.81 10595.8 2589.48C10511.5 2854.14 10340.2 2903.21 10274.8 2880.95C10209.4 2858.69 9850.93 2620.83 9830.04 2673.82C9809.13 2726.81 10004.8 2959.39 10168.2 3004.96C10168.2 3004.96 9778.7 3278.87 9593.65 3132.9C9408.6 2986.94 9426.32 2825.54 9310.32 2737.41C9194.32 2649.29 9083.93 2624.61 9123.75 2696.83C9163.59 2769.06 9384.39 2880.21 9428.9 3027.61C9473.41 3175 9519.91 3278.11 9312.58 3197.56C9105.28 3117.01 8791.81 2881.56 8816.95 2698.35C8842.08 2515.13 8842.08 2515.13 8842.08 2515.13Z" fill="#3566C9"/>
<path d="M10376.7 2547.83C10376.7 2547.83 9184.93 2231.07 8842.09 2515.12C8842.09 2515.12 8743.81 2677.74 8527.12 2797.2L8481.67 2867.62C8481.67 2867.62 8739.42 2694.85 8816.96 2698.34C8816.96 2698.34 8796.21 2246.21 10376.7 2547.83Z" fill="#3566C9"/>
<path d="M8527.15 2797.2C8527.15 2797.2 8226.16 2929.97 8131.53 3266.87L8177.43 3281.6C8177.43 3281.6 8339.15 2947.62 8519.14 2843.26C8699.12 2738.91 8527.15 2797.2 8527.15 2797.2Z" fill="#3566C9"/>
<path d="M7361.46 1749.88C7361.46 1749.88 6695.49 1402.61 6986.35 895.734C6986.35 895.734 7221.8 582.804 7481.47 496.402C7481.47 496.402 7363.84 1242.86 7504.11 1256.16C7644.37 1269.47 7575.21 414.943 7575.21 414.943C7575.21 414.943 8255.31 62.5485 8526.84 80.6842C8526.84 80.6842 8120.47 818.254 8259.69 796.628C8398.91 775.002 8857.43 27.1359 8857.43 27.1359C8857.43 27.1359 9560.98 -124.924 9687.01 290.872C9813.04 706.668 9635.87 921.72 9531.84 951.039C9427.82 980.364 8755.04 991.654 8775.11 1078.46C8795.18 1165.27 9253.5 1291.47 9504.45 1205.33C9504.45 1205.33 9245.51 1903.55 8877.65 1879.54C8509.78 1855.53 8389.47 1631.86 8161.86 1621.16C7934.26 1610.45 7770.14 1676.53 7885.5 1734.27C8000.86 1792.02 8383.93 1739.48 8571.99 1889.92C8760.05 2040.37 8911.39 2132.02 8572.85 2212.01C8234.3 2292.02 7621.62 2266.57 7491.54 2008.22C7361.46 1749.88 7361.46 1749.88 7361.46 1749.88Z" fill="#1BACE1"/>
<path d="M9367.81 431.496C9367.81 431.496 7551.35 1079.95 7361.51 1749.89C7361.51 1749.89 7379.09 2046.55 7205.82 2392.6L7209.71 2523.58C7209.71 2523.58 7388.6 2072.49 7491.59 2008.24C7491.59 2008.24 7063.91 1444.1 9367.81 431.496Z" fill="#6D89D0"/>
<path d="M7205.77 2392.6C7205.77 2392.6 6935.7 2830.49 7112.53 3348.47L7184.72 3326.76C7184.72 3326.76 7096.93 2753.04 7236.28 2459.04C7375.65 2165.02 7205.77 2392.6 7205.77 2392.6Z" fill="#6D89D0"/>
<path d="M9015.5 2669.1H4345.02V8759.28H9015.5V2669.1Z" fill="#9ABCEF"/>
<path d="M9089.66 2669.1H4497.69V8759.28H9089.66V2669.1Z" fill="#F8FBFF"/>
<path d="M12327.6 8744.36H11402.2C11352.7 8702.31 11436.5 8606.8 11524.2 8600.38C11562.3 8597.51 11610.4 8605.47 11665.5 8617.1C11678.2 8447.99 11750.9 7687.79 12025 7718.34C12333.1 7752.54 12025 8053.11 11937.9 8231.08C11873.3 8362.88 11805.2 8551.91 11774.2 8641.11C11799.2 8646.54 11825.1 8651.85 11851.5 8656.72C11892.4 8531.32 12044.3 8109.55 12237.6 8134.13C12464.5 8162.9 12373.3 8332.01 12212.5 8432.38C12094.5 8506.2 11949.6 8611.11 11880.7 8661.8C11939.1 8671.32 11999.9 8677.74 12061.7 8676.3C12220.2 8672.53 12297.6 8719.24 12327.6 8744.36Z" fill="#1BACE1"/>
<path d="M9089.76 2669.02C9089.7 2669.09 9089.7 2669.09 9089.7 2669.09H4497.71C4523.11 2321.89 4484.84 2069.76 4423.52 1888.46C4305.75 1539.85 4102.8 1452.38 4102.8 1452.38H8433.48C8803.1 1452.38 9089.7 1675.03 9167.71 1970.55C9170.62 1981.67 9173.34 1992.74 9175.68 2003.8C9249.74 2341.92 9092.79 2662.84 9089.76 2669.02Z" fill="#F8FBFF"/>
<path d="M9089.7 2669.02C9089.64 2669.09 9089.64 2669.09 9089.64 2669.09H4497.65C4523.05 2321.89 4484.78 2069.76 4423.46 1888.46C4892.73 1974.38 6055.02 2157.47 7299.08 2126.63C8103.91 2106.66 8739.92 2052.82 9175.62 2003.8C9249.68 2341.92 9092.73 2662.84 9089.7 2669.02Z" fill="#F8FBFF"/>
<path d="M7920.15 4073.42H5397.94C5396.87 4073.42 5395.99 4072.54 5395.99 4071.46V3961.16C5395.99 3960.08 5396.86 3959.2 5397.94 3959.2H7920.15C7921.22 3959.2 7922.11 3960.08 7922.11 3961.16V4071.46C7922.11 4072.53 7921.22 4073.42 7920.15 4073.42Z" fill="#BBD5FC"/>
<path d="M6968.04 4265.58H5397.94C5396.87 4265.58 5395.99 4264.7 5395.99 4263.62V4153.32C5395.99 4152.24 5396.86 4151.36 5397.94 4151.36H6968.04C6969.12 4151.36 6970 4152.24 6970 4153.32V4263.62C6970 4264.69 6969.12 4265.58 6968.04 4265.58Z" fill="#BBD5FC"/>
<path d="M5161.42 4247.07V4013.78H5130.63C5111.96 4013.78 5102.62 4006.02 5102.62 3990.46C5102.62 3979.26 5109.94 3971.33 5124.56 3966.67C5132.02 3964.18 5143.92 3962.31 5160.25 3961.06C5176.58 3959.82 5189.73 3959.2 5199.68 3959.2C5209.32 3959.2 5215.38 3961.15 5217.88 3965.03C5220.36 3968.92 5221.62 3978.79 5221.62 3994.66V4247.07H5253.35C5273.88 4247.07 5284.14 4255.93 5284.14 4273.67C5284.14 4292.33 5273.88 4301.66 5253.35 4301.66H5125.48C5116.46 4301.66 5108.92 4299.25 5102.85 4294.43C5096.79 4289.61 5093.75 4282.84 5093.75 4274.13C5093.75 4256.1 5104.17 4247.07 5125.02 4247.07H5161.42Z" fill="#BBD5FC"/>
<path d="M7920.16 5276.24H5397.96C5396.88 5276.24 5396 5275.36 5396 5274.28V5163.98C5396 5162.9 5396.88 5162.02 5397.96 5162.02H7920.16C7921.23 5162.02 7922.12 5162.9 7922.12 5163.98V5274.28C7922.12 5275.36 7921.24 5276.24 7920.16 5276.24Z" fill="#D2E4FD"/>
<path d="M6968.06 5468.38H5397.96C5396.88 5468.38 5396 5467.5 5396 5466.42V5356.13C5396 5355.05 5396.88 5354.17 5397.96 5354.17H6968.06C6969.14 5354.17 6970.02 5355.04 6970.02 5356.13V5466.42C6970.02 5467.5 6969.14 5468.38 6968.06 5468.38Z" fill="#D2E4FD"/>
<path d="M5288.99 5445.09C5288.99 5460.63 5278.12 5468.38 5256.41 5468.38H5121.14C5101.61 5468.38 5091.86 5460.55 5091.86 5444.88C5091.86 5439.93 5094.47 5434.17 5099.69 5427.56C5107.38 5418.77 5118.66 5405.57 5133.5 5387.98C5156.04 5359.66 5174.88 5335.21 5190 5314.58C5195.22 5307.71 5202.64 5297.27 5212.27 5283.24C5220.25 5269.22 5224.23 5257.41 5224.23 5247.78C5224.23 5237.06 5220.79 5228.2 5213.92 5221.18C5207.05 5214.18 5198.25 5210.68 5187.53 5210.68C5177.08 5210.68 5168.01 5213.97 5160.3 5220.57C5155.08 5224.97 5150.95 5233.21 5147.94 5245.31C5144.09 5260.98 5141.61 5270.05 5140.51 5272.53C5136.39 5281.33 5129.65 5285.73 5120.31 5285.73C5112.06 5285.73 5105.6 5282.7 5100.92 5276.66C5096.52 5271.43 5094.32 5264.56 5094.32 5256.04C5094.32 5246.42 5095.83 5236.65 5098.86 5226.76C5105.46 5205.59 5117.14 5189.37 5133.91 5178.1C5149.85 5167.38 5169.23 5162.02 5192.06 5162.02C5217.08 5162.02 5237.97 5169.6 5254.74 5184.74C5272.07 5200.71 5280.73 5221.08 5280.73 5245.86C5280.73 5264.32 5274.54 5283.31 5262.16 5302.86C5255.29 5313.6 5241.14 5332.6 5219.69 5359.85C5208.69 5373.9 5191.37 5394.26 5167.73 5420.97H5256.81C5278.27 5420.97 5288.99 5429 5288.99 5445.09Z" fill="#D2E4FD"/>
<path d="M7920.16 6279.57H5397.96C5396.88 6279.57 5396 6278.7 5396 6277.62V6167.31C5396 6166.24 5396.88 6165.36 5397.96 6165.36H7920.16C7921.23 6165.36 7922.12 6166.24 7922.12 6167.31V6277.62C7922.12 6278.7 7921.24 6279.57 7920.16 6279.57Z" fill="#D2E4FD"/>
<path d="M6968.06 6471.71H5397.96C5396.88 6471.71 5396 6470.84 5396 6469.75V6359.46C5396 6358.39 5396.88 6357.5 5397.96 6357.5H6968.06C6969.14 6357.5 6970.02 6358.38 6970.02 6359.46V6469.75C6970.02 6470.84 6969.14 6471.71 6968.06 6471.71Z" fill="#D2E4FD"/>
<path d="M5289.01 6376.05C5289.01 6405.27 5278.74 6428.73 5258.24 6446.44C5238.85 6463.29 5214.24 6471.72 5184.46 6471.72C5161.41 6471.72 5141.74 6466.24 5125.44 6455.29C5099.58 6437.87 5086.66 6416.93 5086.66 6392.49C5086.66 6385.46 5088.91 6379.42 5093.41 6374.36C5097.9 6369.31 5103.66 6366.77 5110.69 6366.77C5117.99 6366.77 5124.87 6371.71 5131.34 6381.52C5141.74 6397.83 5147.79 6406.83 5149.47 6408.51C5158.74 6418.35 5170.69 6423.26 5185.3 6423.26C5204.97 6423.26 5219.02 6415.95 5227.45 6401.34C5231.38 6394.04 5233.36 6384.77 5233.36 6373.52C5233.36 6345.99 5217.2 6330.68 5184.88 6327.59C5166.61 6325.9 5157.48 6318.18 5157.48 6304.4C5157.48 6294.29 5162.78 6287.13 5173.39 6282.91C5193.2 6275.61 5203.25 6271.81 5203.53 6271.53C5214.13 6264.51 5219.45 6252.28 5219.45 6234.86C5219.45 6224.47 5216.36 6216.26 5210.21 6210.21C5204.04 6204.17 5195.78 6201.15 5185.42 6201.15C5172.53 6201.15 5162.46 6204.24 5155.18 6210.41C5149.01 6215.75 5143.83 6224.89 5139.63 6237.81C5136.25 6247.65 5129.82 6252.56 5120.3 6252.56C5113.58 6252.56 5108.04 6249.62 5103.71 6243.72C5099.38 6237.81 5097.19 6231.36 5097.19 6224.33C5097.19 6215.62 5099.58 6206.91 5104.37 6198.19C5112.23 6183.59 5124.31 6172.21 5140.62 6164.05C5155.51 6156.46 5171.82 6152.68 5189.52 6152.68C5213.4 6152.68 5233.28 6159.91 5249.16 6174.38C5265.04 6188.86 5272.98 6207.9 5272.98 6231.5C5272.98 6259.88 5261.18 6282.35 5237.57 6298.94C5271.86 6312.68 5289.01 6338.4 5289.01 6376.05Z" fill="#D2E4FD"/>
<path d="M7637.96 3073.6H6031.07C6029.82 3073.6 6028.79 3072.57 6028.79 3071.32V2943.19C6028.79 2941.93 6029.82 2940.91 6031.07 2940.91H7637.96C7639.21 2940.91 7640.24 2941.93 7640.24 2943.19V3071.32C7640.24 3072.57 7639.21 3073.6 7637.96 3073.6Z" fill="#BBD5FC"/>
<path d="M8044.26 3278.18H5624.81C5623.56 3278.18 5622.54 3277.16 5622.54 3275.91V3147.77C5622.54 3146.52 5623.57 3145.49 5624.81 3145.49H8044.26C8045.52 3145.49 8046.54 3146.52 8046.54 3147.77V3275.91C8046.54 3277.15 8045.51 3278.18 8044.26 3278.18Z" fill="#BBD5FC"/>
<path d="M6656.58 4689.26C6156.34 4689.26 5681.64 4626.5 5327.76 4536.79C4970.23 4446.16 4777.65 4298.02 4777.65 4166.63C4777.65 4047.54 4934.6 3938.02 5231.53 3849.89C4946.97 3934.35 4794.79 4058.36 4794.79 4166.63C4794.79 4286.76 4992.04 4405.68 5336 4492.87C5688.63 4582.27 6157.63 4631.51 6656.58 4631.51C7155.54 4631.51 7624.54 4582.27 7977.17 4492.87C8321.11 4405.68 8518.38 4286.76 8518.38 4166.63C8518.38 4039.4 8310.66 3881.28 7976.28 3753.98C7596.09 3609.23 7127.4 3555.52 6656.59 3555.52C5772.66 3555.52 5408.79 3658.7 5093.09 3787.99C5410.16 3658.14 5769.53 3510.97 6656.58 3510.97C7129.29 3510.97 7599.99 3591.07 7981.97 3736.49C8323.41 3866.49 8535.52 4031.3 8535.52 4166.63C8535.52 4298.02 8338.61 4420.3 7981.09 4510.93C7627.18 4600.64 7156.81 4689.26 6656.58 4689.26Z" fill="#ACE7F7"/>
<path d="M9694.28 5861.84C9694.28 5861.84 9677.81 6021.96 9659.74 6052.24C9641.67 6082.53 9564.71 6179.31 9531.94 6198.3C9499.16 6217.29 9551.96 6070.77 9545.28 6042.26C9538.6 6013.75 9518.29 6094.29 9503.85 6096.19C9489.4 6098.08 9493.12 6025.59 9492.6 5999.21C9492.08 5972.83 9562.89 5907.7 9587.86 5851.53C9612.82 5795.37 9694.28 5861.84 9694.28 5861.84Z" fill="#EABA8A"/>
<path d="M7726.76 4385.01L7689.95 4315.58C7689.95 4315.58 7708.21 4191.85 7553.16 4113.58C7553.16 4113.58 7496.49 4090.52 7464.51 4136.73C7435.04 4179.3 7520.66 4171.61 7516.07 4244.42C7511.48 4317.24 7546.04 4359.96 7594.16 4383.68L7633.93 4429.75L7726.76 4385.01Z" fill="#EABA8A"/>
<path d="M9192.08 4219.02C9192.08 4219.02 9058.92 4872.47 8326.18 5085.97C8097.45 5152.63 7577.8 4399.66 7577.8 4399.66C7577.8 4399.66 7596.08 4330.25 7710.53 4346.2C7710.53 4346.2 8216.48 4681.12 8280.19 4717.51C8336.71 4749.79 8708.42 4302.51 8877.87 4230.36C9047.31 4158.21 9192.08 4219.02 9192.08 4219.02Z" fill="#ACE7F7"/>
<path d="M7242.15 4090.67L7221.37 4225.92L7901.82 4330.41L7922.59 4195.16L7242.15 4090.67Z" fill="#ACE7F7"/>
<path d="M7073.72 4133.85L7221.53 4225.78L7242.3 4090.52L7073.72 4133.85Z" fill="#EABA8A"/>
<path d="M7994.95 4252.04L7988.38 4294.8C7984.33 4321.11 7959.74 4339.15 7933.43 4335.12L7901.96 4330.29L7922.73 4195.03L7956.96 4200.29C7981.75 4204.09 7998.76 4227.27 7994.95 4252.04Z" fill="#EABA8A"/>
<path d="M10066.9 8326.81C10066.9 8326.81 10157.8 8409.75 10140.1 8468.69C10122.3 8527.62 10040.3 8566.92 10029.2 8638.95C10018.1 8710.98 9973.78 8750.27 9933.87 8750.27C9893.97 8750.27 9743.61 8750.27 9743.61 8750.27C9743.61 8750.27 9714.24 8699.59 9785.19 8684.3C9856.13 8669.02 9882.88 8584.38 9878.45 8505.8C9874.01 8427.22 9885.1 8322.44 9885.1 8322.44L10035.9 8287.51L10066.9 8326.81Z" fill="#309DD7"/>
<path d="M8951.73 8541.34C8951.73 8541.34 8968.05 8730.11 8928.14 8749.75L8417.42 8748.71C8417.42 8748.71 8417.42 8689.77 8499.44 8676.67C8581.48 8663.57 8725.59 8615.55 8749.98 8508.6C8774.37 8401.63 8951.73 8541.34 8951.73 8541.34Z" fill="#309DD7"/>
<path d="M8520.54 5874.82C8520.54 5874.82 8547.47 6205.71 8579.13 6603.46C8622.16 7143.77 8673.91 7807.46 8679.03 7933.18C8687.88 8151.51 8723.4 8500.73 8723.4 8500.73C8723.4 8500.73 8807.61 8583.7 8976.15 8548.74C8976.15 8548.74 9126.33 8050.2 9169.23 7522.73C9169.89 7514.09 9170.56 7505.37 9171.23 7496.67C9211.13 6959.7 9273.19 5828.99 9273.19 5828.99L8520.54 5874.82Z" fill="#1BACE1"/>
<path d="M8520.54 5874.83C8520.54 5874.83 8547.47 6205.71 8579.13 6603.47L9169.23 7522.73C9169.89 7514.09 9170.56 7505.37 9171.23 7496.67C9211.13 6959.7 9273.19 5828.99 9273.19 5828.99L8520.54 5874.83Z" fill="#309DD7"/>
<path d="M8643.57 5914.12C8643.57 5914.12 9129.12 7112.48 9448.37 7675.64C9767.64 8238.8 9867.41 8395.96 9867.41 8395.96C9867.41 8395.96 10050.3 8323.93 10066.9 8274.82C10066.9 8274.82 9944.86 7187.61 9731.05 6922.57C9610.24 6772.82 9468.33 6323.4 9461.67 6166.23C9455.02 6009.06 9418.45 5698.03 9418.45 5698.03L8643.57 5914.12Z" fill="#1BACE1"/>
<path d="M9282.37 4067.35C9282.37 4067.35 8953.85 4225.85 8764.44 4167.04C8764.44 4167.04 8811.07 4108.24 8892.65 4064.49C8886.1 4026.48 8881 3993.49 8878.07 3965.52C8870.07 3900.97 8870.07 3864.4 8870.07 3864.4L8996.81 3764.72L9117.01 3669.33C9107.53 3937.54 9282.37 4067.35 9282.37 4067.35Z" fill="#EABA8A"/>
<path d="M9455.49 5759.4C9456.21 5779.47 9413.24 5802.42 9394.3 5811.03C9253.71 5872.71 9122.59 5915.73 8973.99 5930.09C8798.43 5948.01 8590.83 5908.57 8519.44 5910C8512.15 5910 8505.6 5907.14 8499.77 5902.12C8494.68 5898.52 8491.03 5686.96 8494.68 5420.9C8494.68 5410.13 8494.68 5399.38 8495.4 5388.62V5385.03C8496.86 5281.04 8500.5 5172.04 8505.6 5063.03C8515.8 4823.49 8534.73 4592.55 8566.78 4464.9C8605.4 4314.29 8692.8 4214.61 8772.21 4142.17L8837.77 4084.79C8903.33 4097.71 8972.53 4094.12 9041.74 4060.42C9117.49 4023.83 9199.07 3984.39 9212.19 3994.42C9311.26 4066.85 9378.27 4229.66 9413.97 4437.64C9434.37 4557.41 9444.56 4691.52 9443.83 4832.08C9443.83 4883.72 9442.37 4936.79 9439.46 4989.15C9421.98 5273.13 9439.46 5519.84 9449.66 5662.56C9452.58 5704.18 9454.75 5736.44 9455.49 5759.4Z" fill="#ACE7F7"/>
<path d="M9449.65 5746.35C8299.24 5744.06 9237.47 4498.19 9237.47 4498.19L9423.85 4437.67C9438.59 4565.63 9445.96 4708.91 9445.44 4859.09C9445.44 4914.26 9444.39 4970.95 9442.28 5026.89C9429.65 5330.3 9442.28 5593.88 9449.65 5746.35Z" fill="#ACE7F7"/>
<path d="M9119.16 3771.89C9119.16 3771.89 9036.12 3923.21 8878.04 3965.52C8870.04 3900.97 8870.04 3864.4 8870.04 3864.4L8996.78 3764.71L9119.16 3771.89Z" fill="#F48484"/>
<path d="M8812.27 3860.02C8812.27 3860.02 9125.68 3911.29 9155.1 3718.65C9184.52 3526 9244.78 3402.87 9045.93 3362.01C8847.07 3321.13 8796.87 3388.87 8771.17 3450.82C8745.47 3512.77 8731.51 3841.74 8812.27 3860.02Z" fill="#EABA8A"/>
<path d="M9268.98 3338.94C9271.82 3335.68 9278.39 3333.05 9292.98 3332.25C9292.98 3332.25 9281.31 3324.96 9265.71 3324.56C9262.65 3304.27 9251.85 3268.32 9216.9 3259.58C9216.9 3259.58 9235.68 3269.6 9238.14 3291.19C9197.65 3249.62 9110.92 3219.36 8870.73 3238.32C8554.18 3263.29 8658.52 3465.94 8699.48 3490.1C8740.47 3514.25 8843.63 3448.03 8919.97 3454.09C8996.32 3460.15 9010.84 3570.46 9036.75 3585.6C9062.65 3600.73 9052.47 3573.97 9087.51 3558.13C9122.56 3542.29 9125.89 3600.36 9115.77 3638.11C9105.64 3675.86 9153.79 3725.66 9153.79 3725.66C9153.79 3725.66 9153.79 3725.66 9202.45 3673.26C9251.12 3620.86 9296.98 3398.92 9274.86 3351.61C9272.9 3347.42 9270.97 3343.19 9268.98 3338.94Z" fill="#2C3A64"/>
<path d="M9212.08 3992.85C9212.08 3992.85 9410.36 4086.74 9505.44 4231.08C9652.91 4454.96 9823.86 5270.93 9827.02 5346.49C9830.18 5422.05 9702.25 5955.48 9702.25 5955.48C9702.25 5955.48 9572.5 5946.94 9539.04 5881.47C9539.04 5881.47 9564.96 5333.36 9548.53 5298.13C9532.1 5262.9 9007.62 4562.92 9066.59 4413.54C9125.58 4264.18 9212.08 3992.85 9212.08 3992.85Z" fill="#ACE7F7"/>
<path d="M7689.31 4312.28C7689.31 4312.28 7700.1 4269.69 7670.55 4250.55C7640.99 4231.4 7613.82 4179.34 7601.36 4186.4C7575.56 4201 7615.49 4246.43 7608.18 4303.1C7605.62 4322.94 7651.82 4374.93 7689.31 4312.28Z" fill="#EABA8A"/>
<path d="M2871.05 8345.53C2871.05 8345.53 2405.26 7152.99 2078.6 7342.88C1751.94 7532.78 2871.05 8345.53 2871.05 8345.53Z" fill="#1BACE1"/>
<path d="M2640.74 8345.53C2640.74 8345.53 2025.4 7813.82 1744.32 7912.57C1463.24 8011.32 2640.74 8345.53 2640.74 8345.53Z" fill="#1BACE1"/>
<path d="M9156.18 8517.31C9156.18 8517.31 9297.98 8024.33 9464.33 8082.49C9630.69 8140.66 9156.18 8517.31 9156.18 8517.31Z" fill="#1BACE1"/>
<path d="M9285.54 8490.41C9285.54 8490.41 9647.53 8252.82 9727.08 8326.27C9806.62 8399.72 9285.54 8490.41 9285.54 8490.41Z" fill="#1BACE1"/>
<path d="M8048.48 7434.83H5224.8C5205.9 7434.83 5190.44 7419.37 5190.44 7400.47C5190.44 7381.58 5205.9 7366.12 5224.8 7366.12H8048.48C8067.38 7366.12 8082.84 7381.58 8082.84 7400.47C8082.84 7419.37 8067.38 7434.83 8048.48 7434.83Z" fill="#D2E4FD"/>
<path d="M8048.48 7572.35H5224.8C5205.9 7572.35 5190.44 7556.89 5190.44 7538C5190.44 7519.1 5205.9 7503.63 5224.8 7503.63H8048.48C8067.38 7503.63 8082.84 7519.1 8082.84 7538C8082.84 7556.89 8067.38 7572.35 8048.48 7572.35Z" fill="#D2E4FD"/>
<path d="M8048.48 7724.77H5224.8C5205.9 7724.77 5190.44 7709.31 5190.44 7690.41C5190.44 7671.51 5205.9 7656.05 5224.8 7656.05H8048.48C8067.38 7656.05 8082.84 7671.51 8082.84 7690.41C8082.84 7709.31 8067.38 7724.77 8048.48 7724.77Z" fill="#D2E4FD"/>
<path d="M7708.69 7877.16H5191.61C5190.97 7877.16 5190.44 7876.62 5190.44 7875.98V7809.61C5190.44 7808.96 5190.97 7808.44 5191.61 7808.44H7708.69C7709.34 7808.44 7709.87 7808.96 7709.87 7809.61V7875.98C7709.87 7876.62 7709.34 7877.16 7708.69 7877.16Z" fill="#D2E4FD"/>
<path d="M14029.5 8774.21H0.510369C0.229769 8774.21 0 8773.98 0 8773.69V8744.88C0 8744.59 0.229769 8744.36 0.510369 8744.36H14029.5C14029.8 8744.36 14030 8744.59 14030 8744.88V8773.69C14030 8773.98 14029.8 8774.21 14029.5 8774.21Z" fill="#1C468A"/>
</svg>
